<mxfile host="app.diagrams.net" modified="2024-05-10T05:24:30.066Z" agent="Mozilla/5.0 (Windows NT 10.0; Win64; x64) AppleWebKit/537.36 (KHTML, like Gecko) Chrome/124.0.0.0 Safari/537.36" etag="xAUK5CBjhygPlgFgu9i-" version="24.3.1" type="device" pages="5">
  <diagram id="C5RBs43oDa-KdzZeNtuy" name="Page-1">
    <mxGraphModel dx="1050" dy="530" grid="1" gridSize="10" guides="1" tooltips="1" connect="1" arrows="1" fold="1" page="1" pageScale="1" pageWidth="827" pageHeight="1169" math="0" shadow="0">
      <root>
        <mxCell id="WIyWlLk6GJQsqaUBKTNV-0" />
        <mxCell id="WIyWlLk6GJQsqaUBKTNV-1" parent="WIyWlLk6GJQsqaUBKTNV-0" />
        <mxCell id="FrXGam7pphLwveMUeWsh-1" value="&lt;span style=&quot;white-space: pre;&quot;&gt;&#x9;&lt;/span&gt;&lt;span style=&quot;white-space: pre;&quot;&gt;&#x9;&lt;/span&gt;&lt;span style=&quot;white-space: pre;&quot;&gt;&#x9;&lt;span style=&quot;white-space: pre;&quot;&gt;&#x9;&lt;/span&gt;&lt;span style=&quot;white-space: pre;&quot;&gt;&#x9;&lt;/span&gt;&lt;span style=&quot;white-space: pre;&quot;&gt;&#x9;&lt;/span&gt;&lt;span style=&quot;white-space: pre;&quot;&gt;&#x9;&lt;/span&gt;&lt;/span&gt;三目並べゲーム&lt;div&gt;&lt;span style=&quot;background-color: initial;&quot;&gt;&lt;br&gt;&lt;/span&gt;&lt;/div&gt;&lt;div&gt;&lt;span style=&quot;background-color: initial;&quot;&gt;&lt;span style=&quot;white-space: pre;&quot;&gt;&#x9;&lt;/span&gt;&lt;span style=&quot;white-space: pre;&quot;&gt;&#x9;&lt;/span&gt;&lt;span style=&quot;white-space: pre;&quot;&gt;&#x9;&lt;span style=&quot;white-space: pre;&quot;&gt;&#x9;&lt;/span&gt;&lt;span style=&quot;white-space: pre;&quot;&gt;&#x9;&lt;span style=&quot;white-space: pre;&quot;&gt;&#x9;&lt;/span&gt;&lt;/span&gt;&lt;/span&gt;&lt;/span&gt;&lt;span style=&quot;background-color: initial;&quot;&gt;press Y&lt;/span&gt;&lt;span style=&quot;background-color: initial;&quot;&gt;&amp;nbsp;to start game&lt;/span&gt;&lt;/div&gt;&lt;div&gt;&lt;span style=&quot;background-color: initial;&quot;&gt;&lt;span style=&quot;white-space: pre;&quot;&gt;&#x9;&lt;/span&gt;&lt;span style=&quot;white-space: pre;&quot;&gt;&#x9;&lt;/span&gt;&lt;span style=&quot;white-space: pre;&quot;&gt;&#x9;&lt;span style=&quot;white-space: pre;&quot;&gt;&#x9;&lt;/span&gt;&lt;span style=&quot;white-space: pre;&quot;&gt;&#x9;&lt;/span&gt;&lt;span style=&quot;white-space: pre;&quot;&gt;&#x9;&lt;/span&gt;&lt;/span&gt;press N&amp;nbsp; to exit game&lt;/span&gt;&lt;/div&gt;&lt;div&gt;&lt;span style=&quot;white-space: pre;&quot;&gt;&#x9;&lt;/span&gt;&lt;span style=&quot;white-space: pre;&quot;&gt;&#x9;&lt;/span&gt;&lt;span style=&quot;white-space: pre;&quot;&gt;&#x9;&lt;span style=&quot;white-space: pre;&quot;&gt;&#x9;&lt;span style=&quot;white-space: pre;&quot;&gt;&#x9;&lt;/span&gt;&lt;span style=&quot;white-space: pre;&quot;&gt;&#x9;&lt;/span&gt;&lt;span style=&quot;white-space: pre;&quot;&gt;&#x9;&lt;/span&gt;　&lt;/span&gt;　&lt;/span&gt;→n&lt;/div&gt;&lt;div&gt;&lt;span style=&quot;white-space: pre;&quot;&gt;&#x9;&lt;/span&gt;&lt;span style=&quot;white-space: pre;&quot;&gt;&#x9;&lt;/span&gt;&lt;span style=&quot;white-space: pre;&quot;&gt;&#x9;&lt;span style=&quot;white-space: pre;&quot;&gt;&#x9;&lt;/span&gt;&lt;span style=&quot;white-space: pre;&quot;&gt;&#x9;&lt;/span&gt;&lt;span style=&quot;white-space: pre;&quot;&gt;&#x9;&lt;/span&gt;&lt;/span&gt;ゲームを終了します。&lt;/div&gt;&lt;div&gt;&lt;br&gt;&lt;/div&gt;&lt;div&gt;&lt;br&gt;&lt;/div&gt;" style="rounded=0;whiteSpace=wrap;html=1;align=left;" parent="WIyWlLk6GJQsqaUBKTNV-1" vertex="1">
          <mxGeometry x="39" y="39" width="500" height="260" as="geometry" />
        </mxCell>
        <mxCell id="FrXGam7pphLwveMUeWsh-2" value="&lt;div&gt;&lt;br&gt;&lt;/div&gt;&lt;div style=&quot;&quot;&gt;&lt;span style=&quot;background-color: initial;&quot;&gt;&lt;span style=&quot;white-space: pre;&quot;&gt;&#x9;&lt;/span&gt;&lt;span style=&quot;white-space: pre;&quot;&gt;&#x9;&lt;/span&gt;&lt;span style=&quot;white-space: pre;&quot;&gt;&#x9;&lt;/span&gt;&lt;span style=&quot;white-space: pre;&quot;&gt;&#x9;&lt;/span&gt;&lt;span style=&quot;white-space: pre;&quot;&gt;&#x9;&lt;/span&gt;&lt;span style=&quot;white-space: pre;&quot;&gt;&#x9;&lt;span style=&quot;white-space: pre;&quot;&gt;&#x9;&lt;/span&gt;&lt;/span&gt;三目並べゲーム&lt;/span&gt;&lt;br&gt;&lt;/div&gt;&lt;div style=&quot;&quot;&gt;&lt;br&gt;&lt;/div&gt;&lt;div&gt;&lt;div style=&quot;&quot;&gt;&lt;span style=&quot;background-color: initial;&quot;&gt;&lt;span style=&quot;white-space: pre;&quot;&gt;&#x9;&lt;/span&gt;&lt;span style=&quot;white-space: pre;&quot;&gt;&#x9;&lt;/span&gt;&lt;span style=&quot;white-space: pre;&quot;&gt;&#x9;&lt;/span&gt;&lt;span style=&quot;white-space: pre;&quot;&gt;&#x9;&lt;/span&gt;&lt;span style=&quot;white-space: pre;&quot;&gt;&#x9;&lt;span style=&quot;white-space: pre;&quot;&gt;&#x9;&lt;/span&gt;P&lt;/span&gt;ress Y&lt;/span&gt;&lt;span style=&quot;background-color: initial;&quot;&gt;&amp;nbsp; to start game&lt;/span&gt;&lt;br&gt;&lt;/div&gt;&lt;div style=&quot;&quot;&gt;&lt;div&gt;&lt;span style=&quot;background-color: initial;&quot;&gt;&lt;span style=&quot;white-space: pre;&quot;&gt;&#x9;&lt;/span&gt;&lt;span style=&quot;white-space: pre;&quot;&gt;&#x9;&lt;/span&gt;&lt;span style=&quot;white-space: pre;&quot;&gt;&#x9;&lt;/span&gt;&lt;span style=&quot;white-space: pre;&quot;&gt;&#x9;&lt;/span&gt;&lt;span style=&quot;white-space: pre;&quot;&gt;&#x9;&lt;span style=&quot;white-space: pre;&quot;&gt;&#x9;&lt;/span&gt;P&lt;/span&gt;ress N&amp;nbsp; to exit game&lt;/span&gt;&lt;/div&gt;&lt;div&gt;&lt;span style=&quot;background-color: initial; white-space: pre;&quot;&gt;&#x9;&lt;/span&gt;&lt;span style=&quot;background-color: initial; white-space: pre;&quot;&gt;&#x9;&lt;/span&gt;&lt;span style=&quot;background-color: initial; white-space: pre;&quot;&gt;&#x9;&lt;/span&gt;&lt;span style=&quot;background-color: initial; white-space: pre;&quot;&gt;&#x9;&lt;/span&gt;&lt;span style=&quot;background-color: initial; white-space: pre;&quot;&gt;&#x9;&lt;/span&gt;&lt;span style=&quot;background-color: initial; white-space: pre;&quot;&gt;&#x9;&lt;span style=&quot;white-space: pre;&quot;&gt;&#x9;&lt;/span&gt; &lt;/span&gt;&amp;nbsp; &amp;nbsp; &amp;nbsp;&lt;span style=&quot;background-color: initial;&quot;&gt;→y&lt;/span&gt;&lt;/div&gt;&lt;/div&gt;&lt;div style=&quot;&quot;&gt;&lt;span style=&quot;background-color: initial;&quot;&gt;&lt;span style=&quot;white-space: pre;&quot;&gt;&#x9;&lt;/span&gt;&lt;span style=&quot;white-space: pre;&quot;&gt;&#x9;&lt;/span&gt;&lt;span style=&quot;white-space: pre;&quot;&gt;&#x9;&lt;/span&gt;&lt;span style=&quot;white-space: pre;&quot;&gt;&#x9;&lt;/span&gt;&lt;span style=&quot;white-space: pre;&quot;&gt;&#x9;&lt;span style=&quot;white-space: pre;&quot;&gt;&#x9;&lt;/span&gt;&lt;/span&gt;ゲームを開始します。&lt;/span&gt;&lt;br&gt;&lt;/div&gt;&lt;div&gt;&lt;br&gt;&lt;/div&gt;&lt;div&gt;&lt;br&gt;&lt;/div&gt;&lt;div&gt;&lt;br&gt;&lt;/div&gt;&lt;/div&gt;" style="rounded=0;whiteSpace=wrap;html=1;align=left;" parent="WIyWlLk6GJQsqaUBKTNV-1" vertex="1">
          <mxGeometry x="40" y="360" width="510" height="250" as="geometry" />
        </mxCell>
        <mxCell id="M0G1ACIazZjN2PoEevNa-0" value="" style="rounded=0;whiteSpace=wrap;html=1;" vertex="1" parent="WIyWlLk6GJQsqaUBKTNV-1">
          <mxGeometry x="40" y="660" width="500" height="250" as="geometry" />
        </mxCell>
        <mxCell id="M0G1ACIazZjN2PoEevNa-2" value="正しいマス目を入力してください&lt;div&gt;&lt;br&gt;&lt;/div&gt;&lt;div&gt;Press Enter to next input&amp;nbsp;&lt;/div&gt;" style="text;html=1;align=center;verticalAlign=middle;whiteSpace=wrap;rounded=0;" vertex="1" parent="WIyWlLk6GJQsqaUBKTNV-1">
          <mxGeometry x="130" y="695" width="320" height="180" as="geometry" />
        </mxCell>
      </root>
    </mxGraphModel>
  </diagram>
  <diagram id="q-Bign1AVmglWdd5iNmx" name="ページ2">
    <mxGraphModel dx="1050" dy="530" grid="1" gridSize="10" guides="1" tooltips="1" connect="1" arrows="1" fold="1" page="1" pageScale="1" pageWidth="827" pageHeight="1169" math="0" shadow="0">
      <root>
        <mxCell id="0" />
        <mxCell id="1" parent="0" />
        <mxCell id="cq9oG-TjNycrtWct6yi8-5" value="" style="rounded=0;whiteSpace=wrap;html=1;align=left;" parent="1" vertex="1">
          <mxGeometry x="30" y="41" width="500" height="250" as="geometry" />
        </mxCell>
        <mxCell id="cq9oG-TjNycrtWct6yi8-7" value="&lt;div style=&quot;text-align: left;&quot;&gt;&lt;span style=&quot;background-color: initial;&quot;&gt;&amp;nbsp;------------------------ルール -----------------------&lt;/span&gt;&lt;/div&gt;&lt;div style=&quot;text-align: left;&quot;&gt;&lt;span style=&quot;&quot;&gt;1. 終了条件&lt;/span&gt;&lt;span style=&quot;text-align: left;&quot;&gt;&lt;br&gt;&lt;/span&gt;&lt;/div&gt;&lt;div style=&quot;text-align: left;&quot;&gt;一列・一行・斜めにoかxが揃うと勝ち&lt;span style=&quot;&quot;&gt;&lt;br&gt;&lt;/span&gt;&lt;/div&gt;&lt;div style=&quot;text-align: left;&quot;&gt;&lt;div&gt;9マス全て揃い勝者がいなければ引き分け&lt;/div&gt;&lt;div&gt;&lt;br&gt;&lt;/div&gt;&lt;div&gt;2. 入力方法&lt;br&gt;&lt;/div&gt;&lt;div&gt;&amp;nbsp;左のマス目の数字を入力してください。&lt;br&gt;&lt;/div&gt;&lt;div&gt;oかxが入っているマスは既に入力済みです。&lt;br&gt;&lt;/div&gt;&lt;/div&gt;" style="text;html=1;align=center;verticalAlign=middle;whiteSpace=wrap;rounded=0;" parent="1" vertex="1">
          <mxGeometry x="170" y="95.5" width="410" height="159" as="geometry" />
        </mxCell>
        <mxCell id="cq9oG-TjNycrtWct6yi8-8" value="&lt;div&gt;&lt;br&gt;&lt;/div&gt;&lt;div&gt;&lt;div style=&quot;text-align: left;&quot;&gt;&amp;nbsp; &amp;nbsp; &amp;nbsp;&amp;nbsp;&lt;/div&gt;&lt;div style=&quot;text-align: left;&quot;&gt;&amp;nbsp; &amp;nbsp; &amp;nbsp; 現在の盤面&lt;/div&gt;&lt;span style=&quot;text-align: left;&quot;&gt;&amp;nbsp; &amp;nbsp; &amp;nbsp;-----------------&amp;nbsp; &amp;nbsp; &amp;nbsp; &amp;nbsp; &amp;nbsp;&amp;nbsp;&lt;/span&gt;&lt;span style=&quot;text-align: left; white-space: pre;&quot;&gt;&#x9;&lt;/span&gt;&lt;span style=&quot;text-align: left;&quot;&gt;|&amp;nbsp; &amp;nbsp; &amp;nbsp;&lt;/span&gt;&lt;div style=&quot;text-align: left;&quot;&gt;&lt;span style=&quot;background-color: initial;&quot;&gt;&amp;nbsp; &amp;nbsp; &amp;nbsp;| 7&amp;nbsp; |&amp;nbsp; 8&amp;nbsp; |&amp;nbsp; 9 |&amp;nbsp; &amp;nbsp;&amp;nbsp;&lt;/span&gt;&lt;span style=&quot;background-color: initial; white-space: pre;&quot;&gt;&#x9;&lt;span style=&quot;white-space: pre;&quot;&gt;&#x9;&lt;/span&gt;&lt;/span&gt;&lt;span style=&quot;background-color: initial;&quot;&gt;|&amp;nbsp; &amp;nbsp; &amp;nbsp;&lt;/span&gt;&lt;div&gt;&amp;nbsp; &amp;nbsp; &amp;nbsp;-----------------&amp;nbsp; &amp;nbsp; &amp;nbsp;&lt;span style=&quot;white-space: pre;&quot;&gt;&#x9;&lt;/span&gt;&lt;span style=&quot;white-space: pre;&quot;&gt;&#x9;&lt;/span&gt;|&amp;nbsp; &amp;nbsp; &amp;nbsp;&lt;/div&gt;&lt;div&gt;&amp;nbsp; &amp;nbsp; &amp;nbsp;| 4&amp;nbsp; |&amp;nbsp; 5&amp;nbsp; |&amp;nbsp; 6 |&amp;nbsp; &amp;nbsp; &amp;nbsp;&amp;nbsp;&lt;span style=&quot;white-space: pre;&quot;&gt;&#x9;&lt;/span&gt;&lt;span style=&quot;white-space: pre;&quot;&gt;&#x9;&lt;/span&gt;|&amp;nbsp; &amp;nbsp; &amp;nbsp;&lt;/div&gt;&lt;div&gt;&amp;nbsp; &amp;nbsp; &amp;nbsp;-----------------&amp;nbsp; &amp;nbsp; &amp;nbsp;&lt;span style=&quot;white-space: pre;&quot;&gt;&#x9;&lt;/span&gt;&lt;span style=&quot;white-space: pre;&quot;&gt;&#x9;&lt;/span&gt;|&amp;nbsp; &amp;nbsp; &amp;nbsp;&lt;/div&gt;&lt;div&gt;&amp;nbsp; &amp;nbsp; &amp;nbsp;| 1&amp;nbsp; |&amp;nbsp; 2&amp;nbsp; |&amp;nbsp; 3 |&amp;nbsp; &amp;nbsp; &amp;nbsp;&amp;nbsp;&lt;span style=&quot;white-space: pre;&quot;&gt;&#x9;&lt;/span&gt;&lt;span style=&quot;white-space: pre;&quot;&gt;&#x9;&lt;/span&gt;|&amp;nbsp; &amp;nbsp; &amp;nbsp;&lt;/div&gt;&lt;div&gt;&amp;nbsp; &amp;nbsp; &amp;nbsp;-----------------&amp;nbsp; &amp;nbsp; &amp;nbsp;&lt;span style=&quot;white-space: pre;&quot;&gt;&#x9;&lt;/span&gt;&lt;span style=&quot;white-space: pre;&quot;&gt;&#x9;&lt;/span&gt;|&amp;nbsp; &amp;nbsp; &amp;nbsp;&lt;/div&gt;&lt;div&gt;&amp;nbsp; &amp;nbsp; &amp;nbsp; &amp;nbsp; &amp;nbsp; &amp;nbsp; &amp;nbsp; &amp;nbsp; &amp;nbsp; &amp;nbsp; &amp;nbsp; &amp;nbsp; &amp;nbsp; &amp;nbsp; &amp;nbsp; &amp;nbsp;&amp;nbsp;&lt;span style=&quot;white-space: pre;&quot;&gt;&#x9;&lt;/span&gt;&amp;nbsp; &amp;nbsp; &amp;nbsp;&amp;nbsp;&lt;/div&gt;&lt;div&gt;プレイヤー1 ( o ) の入力&lt;/div&gt;&lt;/div&gt;&lt;/div&gt;" style="text;html=1;align=center;verticalAlign=middle;whiteSpace=wrap;rounded=0;" parent="1" vertex="1">
          <mxGeometry x="30" y="90" width="260" height="170" as="geometry" />
        </mxCell>
        <mxCell id="KaEeAbuuSalKq_KwFfhj-2" value="" style="rounded=0;whiteSpace=wrap;html=1;align=left;" parent="1" vertex="1">
          <mxGeometry x="30" y="360" width="500" height="250" as="geometry" />
        </mxCell>
        <mxCell id="KaEeAbuuSalKq_KwFfhj-3" value="&lt;div&gt;&lt;br&gt;&lt;/div&gt;&lt;div&gt;&lt;div style=&quot;text-align: left;&quot;&gt;&amp;nbsp; &amp;nbsp; &amp;nbsp;&amp;nbsp;&lt;/div&gt;&lt;div style=&quot;text-align: left;&quot;&gt;&amp;nbsp; &amp;nbsp; &amp;nbsp; 現在の盤面&lt;/div&gt;&lt;span style=&quot;text-align: left;&quot;&gt;&amp;nbsp; &amp;nbsp; &amp;nbsp;-----------------&amp;nbsp; &amp;nbsp; &amp;nbsp; &amp;nbsp; &amp;nbsp;&amp;nbsp;&lt;/span&gt;&lt;span style=&quot;text-align: left; white-space: pre;&quot;&gt;&#x9;&lt;/span&gt;&lt;span style=&quot;text-align: left;&quot;&gt;|&amp;nbsp; &amp;nbsp; &amp;nbsp;&lt;/span&gt;&lt;div style=&quot;text-align: left;&quot;&gt;&lt;span style=&quot;background-color: initial;&quot;&gt;&amp;nbsp; &amp;nbsp; &amp;nbsp;| x&amp;nbsp; |&amp;nbsp; 8&amp;nbsp; |&amp;nbsp; 9 |&amp;nbsp; &amp;nbsp;&amp;nbsp;&lt;/span&gt;&lt;span style=&quot;background-color: initial; white-space: pre;&quot;&gt;&#x9;&lt;span style=&quot;white-space: pre;&quot;&gt;&#x9;&lt;/span&gt;&lt;/span&gt;&lt;span style=&quot;background-color: initial;&quot;&gt;|&amp;nbsp; &amp;nbsp; &amp;nbsp;&lt;/span&gt;&lt;div&gt;&amp;nbsp; &amp;nbsp; &amp;nbsp;-----------------&amp;nbsp; &amp;nbsp; &amp;nbsp;&lt;span style=&quot;white-space: pre;&quot;&gt;&#x9;&lt;/span&gt;&lt;span style=&quot;white-space: pre;&quot;&gt;&#x9;&lt;/span&gt;|&amp;nbsp; &amp;nbsp; &amp;nbsp;&lt;/div&gt;&lt;div&gt;&amp;nbsp; &amp;nbsp; &amp;nbsp;| 4&amp;nbsp; |&amp;nbsp; o&amp;nbsp; |&amp;nbsp; 6 |&amp;nbsp; &amp;nbsp; &amp;nbsp;&amp;nbsp;&lt;span style=&quot;white-space: pre;&quot;&gt;&#x9;&lt;/span&gt;&lt;span style=&quot;white-space: pre;&quot;&gt;&#x9;&lt;/span&gt;|&amp;nbsp; &amp;nbsp; &amp;nbsp;&lt;/div&gt;&lt;div&gt;&amp;nbsp; &amp;nbsp; &amp;nbsp;-----------------&amp;nbsp; &amp;nbsp; &amp;nbsp;&lt;span style=&quot;white-space: pre;&quot;&gt;&#x9;&lt;/span&gt;&lt;span style=&quot;white-space: pre;&quot;&gt;&#x9;&lt;/span&gt;|&amp;nbsp; &amp;nbsp; &amp;nbsp;&lt;/div&gt;&lt;div&gt;&amp;nbsp; &amp;nbsp; &amp;nbsp;| 1&amp;nbsp; |&amp;nbsp; 2&amp;nbsp; |&amp;nbsp; o |&amp;nbsp; &amp;nbsp; &amp;nbsp;&amp;nbsp;&lt;span style=&quot;white-space: pre;&quot;&gt;&#x9;&lt;/span&gt;&lt;span style=&quot;white-space: pre;&quot;&gt;&#x9;&lt;/span&gt;|&amp;nbsp; &amp;nbsp; &amp;nbsp;&lt;/div&gt;&lt;div&gt;&amp;nbsp; &amp;nbsp; &amp;nbsp;-----------------&amp;nbsp; &amp;nbsp; &amp;nbsp;&lt;span style=&quot;white-space: pre;&quot;&gt;&#x9;&lt;/span&gt;&lt;span style=&quot;white-space: pre;&quot;&gt;&#x9;&lt;/span&gt;|&amp;nbsp; &amp;nbsp; &amp;nbsp;&lt;/div&gt;&lt;div&gt;&amp;nbsp; &amp;nbsp; &amp;nbsp; &amp;nbsp; &amp;nbsp; &amp;nbsp; &amp;nbsp; &amp;nbsp; &amp;nbsp; &amp;nbsp; &amp;nbsp; &amp;nbsp; &amp;nbsp; &amp;nbsp; &amp;nbsp; &amp;nbsp;&amp;nbsp;&lt;span style=&quot;white-space: pre;&quot;&gt;&#x9;&lt;/span&gt;&amp;nbsp; &amp;nbsp; &amp;nbsp;&amp;nbsp;&lt;/div&gt;&lt;div&gt;プレイヤー1 ( o ) の入力&lt;/div&gt;&lt;/div&gt;&lt;/div&gt;" style="text;html=1;align=center;verticalAlign=middle;whiteSpace=wrap;rounded=0;" parent="1" vertex="1">
          <mxGeometry x="40" y="400" width="260" height="170" as="geometry" />
        </mxCell>
        <mxCell id="KaEeAbuuSalKq_KwFfhj-4" value="&lt;div style=&quot;text-align: left;&quot;&gt;&lt;span style=&quot;background-color: initial;&quot;&gt;&amp;nbsp;------------------------ルール -----------------------&lt;/span&gt;&lt;/div&gt;&lt;div style=&quot;text-align: left;&quot;&gt;&lt;span style=&quot;&quot;&gt;1. 終了条件&lt;/span&gt;&lt;span style=&quot;text-align: left;&quot;&gt;&lt;br&gt;&lt;/span&gt;&lt;/div&gt;&lt;div style=&quot;text-align: left;&quot;&gt;一列・一行・斜めにoかxが揃うと勝ち&lt;span style=&quot;&quot;&gt;&lt;br&gt;&lt;/span&gt;&lt;/div&gt;&lt;div style=&quot;text-align: left;&quot;&gt;&lt;div&gt;9マス全て揃い勝者がいなければ引き分け&lt;/div&gt;&lt;div&gt;&lt;br&gt;&lt;/div&gt;&lt;div&gt;2. 入力方法&lt;br&gt;&lt;/div&gt;&lt;div&gt;&amp;nbsp;左のマス目の数字を入力してください。&lt;br&gt;&lt;/div&gt;&lt;div&gt;oかxが入っているマスは既に入力済みです。&lt;br&gt;&lt;/div&gt;&lt;/div&gt;" style="text;html=1;align=center;verticalAlign=middle;whiteSpace=wrap;rounded=0;" parent="1" vertex="1">
          <mxGeometry x="170" y="405.5" width="410" height="159" as="geometry" />
        </mxCell>
        <mxCell id="usS4Jao17o0SB-bQHE5o-1" value="" style="rounded=0;whiteSpace=wrap;html=1;align=left;" vertex="1" parent="1">
          <mxGeometry x="30" y="670" width="500" height="250" as="geometry" />
        </mxCell>
        <mxCell id="usS4Jao17o0SB-bQHE5o-2" value="&lt;div&gt;&lt;br&gt;&lt;/div&gt;&lt;div&gt;&lt;div style=&quot;text-align: left;&quot;&gt;&amp;nbsp; &amp;nbsp; &amp;nbsp;&amp;nbsp;&lt;/div&gt;&lt;div style=&quot;text-align: left;&quot;&gt;&amp;nbsp; &amp;nbsp; &amp;nbsp; 現在の盤面&lt;/div&gt;&lt;span style=&quot;text-align: left;&quot;&gt;&amp;nbsp; &amp;nbsp; &amp;nbsp;-----------------&amp;nbsp; &amp;nbsp; &amp;nbsp; &amp;nbsp; &amp;nbsp;&amp;nbsp;&lt;/span&gt;&lt;span style=&quot;text-align: left; white-space: pre;&quot;&gt;&#x9;&lt;/span&gt;&lt;span style=&quot;text-align: left;&quot;&gt;|&amp;nbsp; &amp;nbsp; &amp;nbsp;&lt;/span&gt;&lt;div style=&quot;text-align: left;&quot;&gt;&lt;span style=&quot;background-color: initial;&quot;&gt;&amp;nbsp; &amp;nbsp; &amp;nbsp;| x&amp;nbsp; |&amp;nbsp; &amp;nbsp; &amp;nbsp; |&amp;nbsp; o |&amp;nbsp; &amp;nbsp;&amp;nbsp;&lt;/span&gt;&lt;span style=&quot;background-color: initial; white-space: pre;&quot;&gt;&#x9;&lt;span style=&quot;white-space: pre;&quot;&gt;&#x9;&lt;/span&gt;&lt;/span&gt;&lt;span style=&quot;background-color: initial;&quot;&gt;|&amp;nbsp; &amp;nbsp; &amp;nbsp;&lt;/span&gt;&lt;div&gt;&amp;nbsp; &amp;nbsp; &amp;nbsp;-----------------&amp;nbsp; &amp;nbsp; &amp;nbsp;&lt;span style=&quot;white-space: pre;&quot;&gt;&#x9;&lt;/span&gt;&lt;span style=&quot;white-space: pre;&quot;&gt;&#x9;&lt;/span&gt;|&amp;nbsp; &amp;nbsp; &amp;nbsp;&lt;/div&gt;&lt;div&gt;&amp;nbsp; &amp;nbsp; &amp;nbsp;|&amp;nbsp; &amp;nbsp; &amp;nbsp;|&amp;nbsp; o&amp;nbsp; |&amp;nbsp; x |&amp;nbsp; &amp;nbsp; &amp;nbsp;&amp;nbsp;&lt;span style=&quot;white-space: pre;&quot;&gt;&#x9;&lt;/span&gt;&lt;span style=&quot;white-space: pre;&quot;&gt;&#x9;&lt;/span&gt;|&amp;nbsp; &amp;nbsp; &amp;nbsp;&lt;/div&gt;&lt;div&gt;&amp;nbsp; &amp;nbsp; &amp;nbsp;-----------------&amp;nbsp; &amp;nbsp; &amp;nbsp;&lt;span style=&quot;white-space: pre;&quot;&gt;&#x9;&lt;/span&gt;&lt;span style=&quot;white-space: pre;&quot;&gt;&#x9;&lt;/span&gt;|&amp;nbsp; &amp;nbsp; &amp;nbsp;&lt;/div&gt;&lt;div&gt;&amp;nbsp; &amp;nbsp; &amp;nbsp;| o&amp;nbsp; |&amp;nbsp; x&amp;nbsp; |&amp;nbsp; o |&amp;nbsp; &amp;nbsp; &amp;nbsp;&amp;nbsp;&lt;span style=&quot;white-space: pre;&quot;&gt;&#x9;&lt;/span&gt;&lt;span style=&quot;white-space: pre;&quot;&gt;&#x9;&lt;/span&gt;|&amp;nbsp; &amp;nbsp; &amp;nbsp;&lt;/div&gt;&lt;div&gt;&amp;nbsp; &amp;nbsp; &amp;nbsp;-----------------&amp;nbsp; &amp;nbsp; &amp;nbsp;&lt;span style=&quot;white-space: pre;&quot;&gt;&#x9;&lt;/span&gt;&lt;span style=&quot;white-space: pre;&quot;&gt;&#x9;&lt;/span&gt;|&amp;nbsp; &amp;nbsp; &amp;nbsp;&lt;/div&gt;&lt;div&gt;&amp;nbsp; &amp;nbsp; &amp;nbsp; &amp;nbsp; &amp;nbsp; &amp;nbsp; &amp;nbsp; &amp;nbsp; &amp;nbsp; &amp;nbsp; &amp;nbsp; &amp;nbsp; &amp;nbsp; &amp;nbsp; &amp;nbsp; &amp;nbsp;&amp;nbsp;&lt;span style=&quot;white-space: pre;&quot;&gt;&#x9;&lt;/span&gt;&amp;nbsp; &amp;nbsp; &amp;nbsp;&amp;nbsp;&lt;/div&gt;&lt;div&gt;&lt;br&gt;&lt;/div&gt;&lt;/div&gt;&lt;/div&gt;" style="text;html=1;align=center;verticalAlign=middle;whiteSpace=wrap;rounded=0;" vertex="1" parent="1">
          <mxGeometry x="40" y="700" width="260" height="170" as="geometry" />
        </mxCell>
        <mxCell id="usS4Jao17o0SB-bQHE5o-5" value="プレイヤー 1 ( o ) の勝利&lt;div&gt;&lt;br&gt;&lt;div&gt;Press Enter to back title&lt;/div&gt;&lt;/div&gt;" style="text;html=1;align=center;verticalAlign=middle;whiteSpace=wrap;rounded=0;" vertex="1" parent="1">
          <mxGeometry x="260" y="725" width="200" height="140" as="geometry" />
        </mxCell>
        <mxCell id="usS4Jao17o0SB-bQHE5o-6" value="" style="rounded=0;whiteSpace=wrap;html=1;align=left;" vertex="1" parent="1">
          <mxGeometry x="30" y="960" width="500" height="250" as="geometry" />
        </mxCell>
        <mxCell id="usS4Jao17o0SB-bQHE5o-7" value="&lt;div&gt;&lt;br&gt;&lt;/div&gt;&lt;div&gt;&lt;div style=&quot;text-align: left;&quot;&gt;&amp;nbsp; &amp;nbsp; &amp;nbsp;&amp;nbsp;&lt;/div&gt;&lt;div style=&quot;text-align: left;&quot;&gt;&amp;nbsp; &amp;nbsp; &amp;nbsp; 現在の盤面&lt;/div&gt;&lt;span style=&quot;text-align: left;&quot;&gt;&amp;nbsp; &amp;nbsp; &amp;nbsp;-----------------&amp;nbsp; &amp;nbsp; &amp;nbsp; &amp;nbsp; &amp;nbsp;&amp;nbsp;&lt;/span&gt;&lt;span style=&quot;text-align: left; white-space: pre;&quot;&gt;&#x9;&lt;/span&gt;&lt;span style=&quot;text-align: left;&quot;&gt;|&amp;nbsp; &amp;nbsp; &amp;nbsp;&lt;/span&gt;&lt;div style=&quot;text-align: left;&quot;&gt;&lt;span style=&quot;background-color: initial;&quot;&gt;&amp;nbsp; &amp;nbsp; &amp;nbsp;|&amp;nbsp; x&amp;nbsp; |&amp;nbsp; x |&amp;nbsp; o |&amp;nbsp; &amp;nbsp;&amp;nbsp;&lt;/span&gt;&lt;span style=&quot;background-color: initial; white-space: pre;&quot;&gt;&#x9;&lt;span style=&quot;white-space: pre;&quot;&gt;&#x9;&lt;/span&gt;&lt;/span&gt;&lt;span style=&quot;background-color: initial;&quot;&gt;|&amp;nbsp; &amp;nbsp; &amp;nbsp;&lt;/span&gt;&lt;div&gt;&amp;nbsp; &amp;nbsp; &amp;nbsp;-----------------&amp;nbsp; &amp;nbsp; &amp;nbsp;&lt;span style=&quot;white-space: pre;&quot;&gt;&#x9;&lt;/span&gt;&lt;span style=&quot;white-space: pre;&quot;&gt;&#x9;&lt;/span&gt;|&amp;nbsp; &amp;nbsp; &amp;nbsp;&lt;/div&gt;&lt;div&gt;&amp;nbsp; &amp;nbsp; &amp;nbsp;|&amp;nbsp; o |&amp;nbsp; o&amp;nbsp; |&amp;nbsp; x |&amp;nbsp; &amp;nbsp; &amp;nbsp;&amp;nbsp;&lt;span style=&quot;white-space: pre;&quot;&gt;&#x9;&lt;/span&gt;&lt;span style=&quot;white-space: pre;&quot;&gt;&#x9;&lt;/span&gt;|&amp;nbsp; &amp;nbsp; &amp;nbsp;&lt;/div&gt;&lt;div&gt;&amp;nbsp; &amp;nbsp; &amp;nbsp;-----------------&amp;nbsp; &amp;nbsp; &amp;nbsp;&lt;span style=&quot;white-space: pre;&quot;&gt;&#x9;&lt;/span&gt;&lt;span style=&quot;white-space: pre;&quot;&gt;&#x9;&lt;/span&gt;|&amp;nbsp; &amp;nbsp; &amp;nbsp;&lt;/div&gt;&lt;div&gt;&amp;nbsp; &amp;nbsp; &amp;nbsp;|&amp;nbsp; x |&amp;nbsp; o&amp;nbsp; |&amp;nbsp; o |&amp;nbsp; &amp;nbsp; &amp;nbsp;&amp;nbsp;&lt;span style=&quot;white-space: pre;&quot;&gt;&#x9;&lt;/span&gt;&lt;span style=&quot;white-space: pre;&quot;&gt;&#x9;&lt;/span&gt;|&amp;nbsp; &amp;nbsp; &amp;nbsp;&lt;/div&gt;&lt;div&gt;&amp;nbsp; &amp;nbsp; &amp;nbsp;-----------------&amp;nbsp; &amp;nbsp; &amp;nbsp;&lt;span style=&quot;white-space: pre;&quot;&gt;&#x9;&lt;/span&gt;&lt;span style=&quot;white-space: pre;&quot;&gt;&#x9;&lt;/span&gt;|&amp;nbsp; &amp;nbsp; &amp;nbsp;&lt;/div&gt;&lt;div&gt;&amp;nbsp; &amp;nbsp; &amp;nbsp; &amp;nbsp; &amp;nbsp; &amp;nbsp; &amp;nbsp; &amp;nbsp; &amp;nbsp; &amp;nbsp; &amp;nbsp; &amp;nbsp; &amp;nbsp; &amp;nbsp; &amp;nbsp; &amp;nbsp;&amp;nbsp;&lt;span style=&quot;white-space: pre;&quot;&gt;&#x9;&lt;/span&gt;&amp;nbsp; &amp;nbsp; &amp;nbsp;&amp;nbsp;&lt;/div&gt;&lt;div&gt;&lt;br&gt;&lt;/div&gt;&lt;/div&gt;&lt;/div&gt;" style="text;html=1;align=center;verticalAlign=middle;whiteSpace=wrap;rounded=0;" vertex="1" parent="1">
          <mxGeometry x="40" y="1010" width="260" height="170" as="geometry" />
        </mxCell>
        <mxCell id="usS4Jao17o0SB-bQHE5o-8" value="&lt;div&gt;引き分け&lt;/div&gt;&lt;div&gt;&lt;br&gt;&lt;div&gt;Press Enter to back title&lt;/div&gt;&lt;/div&gt;" style="text;html=1;align=center;verticalAlign=middle;whiteSpace=wrap;rounded=0;" vertex="1" parent="1">
          <mxGeometry x="260" y="1025" width="200" height="140" as="geometry" />
        </mxCell>
      </root>
    </mxGraphModel>
  </diagram>
  <diagram id="ItXlsnpMc9STNB_hffTD" name="ページ3">
    <mxGraphModel dx="1050" dy="530" grid="1" gridSize="10" guides="1" tooltips="1" connect="1" arrows="1" fold="1" page="1" pageScale="1" pageWidth="827" pageHeight="1169" math="0" shadow="0">
      <root>
        <mxCell id="0" />
        <mxCell id="1" parent="0" />
        <mxCell id="dM2x4q8myqZG1k15qn7V-9" value="yを入力" style="text;html=1;align=center;verticalAlign=middle;whiteSpace=wrap;rounded=0;" vertex="1" parent="1">
          <mxGeometry x="200" y="120" width="60" height="30" as="geometry" />
        </mxCell>
        <mxCell id="dM2x4q8myqZG1k15qn7V-13" value="" style="edgeStyle=orthogonalEdgeStyle;rounded=0;orthogonalLoop=1;jettySize=auto;html=1;entryX=0.496;entryY=0;entryDx=0;entryDy=0;entryPerimeter=0;" edge="1" parent="1" target="dM2x4q8myqZG1k15qn7V-24">
          <mxGeometry relative="1" as="geometry">
            <mxPoint x="259.5" y="100" as="sourcePoint" />
            <mxPoint x="259.5" y="150" as="targetPoint" />
            <Array as="points" />
          </mxGeometry>
        </mxCell>
        <mxCell id="dM2x4q8myqZG1k15qn7V-26" value="" style="edgeStyle=orthogonalEdgeStyle;rounded=0;orthogonalLoop=1;jettySize=auto;html=1;" edge="1" parent="1" source="dM2x4q8myqZG1k15qn7V-23" target="dM2x4q8myqZG1k15qn7V-25">
          <mxGeometry relative="1" as="geometry" />
        </mxCell>
        <mxCell id="dM2x4q8myqZG1k15qn7V-23" value="ゲーム起動&lt;div&gt;開始選択&lt;/div&gt;" style="rounded=0;whiteSpace=wrap;html=1;" vertex="1" parent="1">
          <mxGeometry x="200" y="40" width="120" height="60" as="geometry" />
        </mxCell>
        <mxCell id="dM2x4q8myqZG1k15qn7V-42" value="" style="edgeStyle=orthogonalEdgeStyle;rounded=0;orthogonalLoop=1;jettySize=auto;html=1;" edge="1" parent="1" source="dM2x4q8myqZG1k15qn7V-24" target="dM2x4q8myqZG1k15qn7V-41">
          <mxGeometry relative="1" as="geometry" />
        </mxCell>
        <mxCell id="dM2x4q8myqZG1k15qn7V-24" value="ゲーム開始" style="rounded=0;whiteSpace=wrap;html=1;" vertex="1" parent="1">
          <mxGeometry x="200" y="180" width="120" height="60" as="geometry" />
        </mxCell>
        <mxCell id="dM2x4q8myqZG1k15qn7V-29" value="" style="edgeStyle=orthogonalEdgeStyle;rounded=0;orthogonalLoop=1;jettySize=auto;html=1;" edge="1" parent="1" source="dM2x4q8myqZG1k15qn7V-25" target="dM2x4q8myqZG1k15qn7V-28">
          <mxGeometry relative="1" as="geometry" />
        </mxCell>
        <mxCell id="dM2x4q8myqZG1k15qn7V-40" style="edgeStyle=orthogonalEdgeStyle;rounded=0;orthogonalLoop=1;jettySize=auto;html=1;" edge="1" parent="1" source="dM2x4q8myqZG1k15qn7V-25" target="dM2x4q8myqZG1k15qn7V-23">
          <mxGeometry relative="1" as="geometry" />
        </mxCell>
        <mxCell id="dM2x4q8myqZG1k15qn7V-25" value="終了確認画面" style="rounded=0;whiteSpace=wrap;html=1;" vertex="1" parent="1">
          <mxGeometry x="400" y="40" width="120" height="60" as="geometry" />
        </mxCell>
        <mxCell id="dM2x4q8myqZG1k15qn7V-27" value="nを入力" style="text;html=1;align=center;verticalAlign=middle;whiteSpace=wrap;rounded=0;" vertex="1" parent="1">
          <mxGeometry x="330" y="40" width="60" height="30" as="geometry" />
        </mxCell>
        <mxCell id="dM2x4q8myqZG1k15qn7V-28" value="ゲーム終了" style="rounded=0;whiteSpace=wrap;html=1;" vertex="1" parent="1">
          <mxGeometry x="610" y="40" width="120" height="60" as="geometry" />
        </mxCell>
        <mxCell id="dM2x4q8myqZG1k15qn7V-30" value="yを入力" style="text;html=1;align=center;verticalAlign=middle;whiteSpace=wrap;rounded=0;" vertex="1" parent="1">
          <mxGeometry x="540" y="40" width="60" height="30" as="geometry" />
        </mxCell>
        <mxCell id="dM2x4q8myqZG1k15qn7V-44" value="" style="edgeStyle=orthogonalEdgeStyle;rounded=0;orthogonalLoop=1;jettySize=auto;html=1;" edge="1" parent="1" source="dM2x4q8myqZG1k15qn7V-41" target="dM2x4q8myqZG1k15qn7V-43">
          <mxGeometry relative="1" as="geometry" />
        </mxCell>
        <mxCell id="dM2x4q8myqZG1k15qn7V-47" value="" style="edgeStyle=orthogonalEdgeStyle;rounded=0;orthogonalLoop=1;jettySize=auto;html=1;" edge="1" parent="1" source="dM2x4q8myqZG1k15qn7V-41" target="dM2x4q8myqZG1k15qn7V-46">
          <mxGeometry relative="1" as="geometry" />
        </mxCell>
        <mxCell id="dM2x4q8myqZG1k15qn7V-41" value="プレイヤーの、マス目入力" style="rounded=0;whiteSpace=wrap;html=1;" vertex="1" parent="1">
          <mxGeometry x="200" y="310" width="120" height="60" as="geometry" />
        </mxCell>
        <mxCell id="oZPzmEA8HDyUbR4Sfms7-1" style="edgeStyle=orthogonalEdgeStyle;rounded=0;orthogonalLoop=1;jettySize=auto;html=1;" edge="1" parent="1" source="dM2x4q8myqZG1k15qn7V-43">
          <mxGeometry relative="1" as="geometry">
            <mxPoint x="270" y="286" as="targetPoint" />
            <Array as="points">
              <mxPoint x="474" y="286" />
              <mxPoint x="431" y="286" />
            </Array>
          </mxGeometry>
        </mxCell>
        <mxCell id="dM2x4q8myqZG1k15qn7V-43" value="エラーメッセージ" style="rounded=0;whiteSpace=wrap;html=1;" vertex="1" parent="1">
          <mxGeometry x="414" y="310" width="120" height="60" as="geometry" />
        </mxCell>
        <mxCell id="dM2x4q8myqZG1k15qn7V-45" value="不適切な入力" style="text;html=1;align=center;verticalAlign=middle;whiteSpace=wrap;rounded=0;" vertex="1" parent="1">
          <mxGeometry x="330" y="300" width="60" height="30" as="geometry" />
        </mxCell>
        <mxCell id="dM2x4q8myqZG1k15qn7V-50" value="" style="edgeStyle=orthogonalEdgeStyle;rounded=0;orthogonalLoop=1;jettySize=auto;html=1;" edge="1" parent="1" source="dM2x4q8myqZG1k15qn7V-46" target="dM2x4q8myqZG1k15qn7V-49">
          <mxGeometry relative="1" as="geometry" />
        </mxCell>
        <mxCell id="oZPzmEA8HDyUbR4Sfms7-3" style="edgeStyle=orthogonalEdgeStyle;rounded=0;orthogonalLoop=1;jettySize=auto;html=1;" edge="1" parent="1" source="dM2x4q8myqZG1k15qn7V-46" target="oZPzmEA8HDyUbR4Sfms7-4">
          <mxGeometry relative="1" as="geometry">
            <mxPoint x="380" y="480" as="targetPoint" />
          </mxGeometry>
        </mxCell>
        <mxCell id="dM2x4q8myqZG1k15qn7V-46" value="盤面更新" style="rounded=0;whiteSpace=wrap;html=1;" vertex="1" parent="1">
          <mxGeometry x="200" y="450" width="120" height="60" as="geometry" />
        </mxCell>
        <mxCell id="dM2x4q8myqZG1k15qn7V-48" value="適切な&lt;div&gt;入力&lt;/div&gt;" style="text;html=1;align=center;verticalAlign=middle;whiteSpace=wrap;rounded=0;" vertex="1" parent="1">
          <mxGeometry x="260" y="390" width="60" height="30" as="geometry" />
        </mxCell>
        <mxCell id="dM2x4q8myqZG1k15qn7V-51" style="edgeStyle=orthogonalEdgeStyle;rounded=0;orthogonalLoop=1;jettySize=auto;html=1;entryX=0;entryY=0.5;entryDx=0;entryDy=0;" edge="1" parent="1" source="dM2x4q8myqZG1k15qn7V-49" target="dM2x4q8myqZG1k15qn7V-41">
          <mxGeometry relative="1" as="geometry">
            <mxPoint x="160" y="330" as="targetPoint" />
            <Array as="points">
              <mxPoint x="161" y="620" />
              <mxPoint x="161" y="340" />
            </Array>
          </mxGeometry>
        </mxCell>
        <mxCell id="dM2x4q8myqZG1k15qn7V-49" value="手番交代" style="rounded=0;whiteSpace=wrap;html=1;" vertex="1" parent="1">
          <mxGeometry x="200" y="600" width="120" height="60" as="geometry" />
        </mxCell>
        <mxCell id="oZPzmEA8HDyUbR4Sfms7-2" value="Enter入力" style="text;html=1;align=center;verticalAlign=middle;whiteSpace=wrap;rounded=0;" vertex="1" parent="1">
          <mxGeometry x="474" y="280" width="66" height="30" as="geometry" />
        </mxCell>
        <mxCell id="oZPzmEA8HDyUbR4Sfms7-5" style="edgeStyle=orthogonalEdgeStyle;rounded=0;orthogonalLoop=1;jettySize=auto;html=1;" edge="1" parent="1" source="oZPzmEA8HDyUbR4Sfms7-4" target="oZPzmEA8HDyUbR4Sfms7-6">
          <mxGeometry relative="1" as="geometry">
            <mxPoint x="470" y="600" as="targetPoint" />
          </mxGeometry>
        </mxCell>
        <mxCell id="oZPzmEA8HDyUbR4Sfms7-9" value="" style="edgeStyle=orthogonalEdgeStyle;rounded=0;orthogonalLoop=1;jettySize=auto;html=1;" edge="1" parent="1" source="oZPzmEA8HDyUbR4Sfms7-4" target="oZPzmEA8HDyUbR4Sfms7-8">
          <mxGeometry relative="1" as="geometry" />
        </mxCell>
        <mxCell id="oZPzmEA8HDyUbR4Sfms7-4" value="終了条件を満たした" style="rounded=0;whiteSpace=wrap;html=1;" vertex="1" parent="1">
          <mxGeometry x="410" y="450" width="120" height="60" as="geometry" />
        </mxCell>
        <mxCell id="oZPzmEA8HDyUbR4Sfms7-12" style="edgeStyle=orthogonalEdgeStyle;rounded=0;orthogonalLoop=1;jettySize=auto;html=1;" edge="1" parent="1" source="oZPzmEA8HDyUbR4Sfms7-6">
          <mxGeometry relative="1" as="geometry">
            <mxPoint x="470" y="720" as="targetPoint" />
          </mxGeometry>
        </mxCell>
        <mxCell id="oZPzmEA8HDyUbR4Sfms7-6" value="プレイヤー勝利画面" style="rounded=0;whiteSpace=wrap;html=1;" vertex="1" parent="1">
          <mxGeometry x="410" y="600" width="120" height="60" as="geometry" />
        </mxCell>
        <mxCell id="oZPzmEA8HDyUbR4Sfms7-7" value="勝敗が決まった時" style="text;html=1;align=center;verticalAlign=middle;whiteSpace=wrap;rounded=0;" vertex="1" parent="1">
          <mxGeometry x="410" y="540" width="60" height="30" as="geometry" />
        </mxCell>
        <mxCell id="oZPzmEA8HDyUbR4Sfms7-11" style="edgeStyle=orthogonalEdgeStyle;rounded=0;orthogonalLoop=1;jettySize=auto;html=1;entryX=0;entryY=0.5;entryDx=0;entryDy=0;" edge="1" parent="1" source="oZPzmEA8HDyUbR4Sfms7-8" target="dM2x4q8myqZG1k15qn7V-23">
          <mxGeometry relative="1" as="geometry">
            <mxPoint x="60" y="70" as="targetPoint" />
            <Array as="points">
              <mxPoint x="670" y="615" />
              <mxPoint x="671" y="615" />
              <mxPoint x="671" y="720" />
              <mxPoint x="80" y="720" />
              <mxPoint x="80" y="70" />
            </Array>
          </mxGeometry>
        </mxCell>
        <mxCell id="oZPzmEA8HDyUbR4Sfms7-8" value="引き分けの画面表示" style="rounded=0;whiteSpace=wrap;html=1;" vertex="1" parent="1">
          <mxGeometry x="610" y="450" width="120" height="60" as="geometry" />
        </mxCell>
        <mxCell id="oZPzmEA8HDyUbR4Sfms7-10" value="引き分け" style="text;html=1;align=center;verticalAlign=middle;whiteSpace=wrap;rounded=0;" vertex="1" parent="1">
          <mxGeometry x="540" y="440" width="60" height="30" as="geometry" />
        </mxCell>
      </root>
    </mxGraphModel>
  </diagram>
  <diagram name="ページ3のコピー" id="Ko3uS2M9YPClPPvplYbj">
    <mxGraphModel dx="1050" dy="530" grid="1" gridSize="10" guides="1" tooltips="1" connect="1" arrows="1" fold="1" page="1" pageScale="1" pageWidth="827" pageHeight="1169" math="0" shadow="0">
      <root>
        <mxCell id="D1n73IFMItRvl2_9MY_z-0" />
        <mxCell id="D1n73IFMItRvl2_9MY_z-1" parent="D1n73IFMItRvl2_9MY_z-0" />
        <mxCell id="D1n73IFMItRvl2_9MY_z-2" value="yを入力" style="text;html=1;align=center;verticalAlign=middle;whiteSpace=wrap;rounded=0;" vertex="1" parent="D1n73IFMItRvl2_9MY_z-1">
          <mxGeometry x="200" y="120" width="60" height="30" as="geometry" />
        </mxCell>
        <mxCell id="D1n73IFMItRvl2_9MY_z-3" value="" style="edgeStyle=orthogonalEdgeStyle;rounded=0;orthogonalLoop=1;jettySize=auto;html=1;entryX=0.496;entryY=0;entryDx=0;entryDy=0;entryPerimeter=0;" edge="1" parent="D1n73IFMItRvl2_9MY_z-1" target="D1n73IFMItRvl2_9MY_z-7">
          <mxGeometry relative="1" as="geometry">
            <mxPoint x="259.5" y="100" as="sourcePoint" />
            <mxPoint x="259.5" y="150" as="targetPoint" />
            <Array as="points" />
          </mxGeometry>
        </mxCell>
        <mxCell id="D1n73IFMItRvl2_9MY_z-4" value="" style="edgeStyle=orthogonalEdgeStyle;rounded=0;orthogonalLoop=1;jettySize=auto;html=1;" edge="1" parent="D1n73IFMItRvl2_9MY_z-1" source="D1n73IFMItRvl2_9MY_z-5" target="D1n73IFMItRvl2_9MY_z-10">
          <mxGeometry relative="1" as="geometry" />
        </mxCell>
        <mxCell id="D1n73IFMItRvl2_9MY_z-5" value="ゲーム起動&lt;div&gt;開始選択&lt;/div&gt;" style="rounded=0;whiteSpace=wrap;html=1;" vertex="1" parent="D1n73IFMItRvl2_9MY_z-1">
          <mxGeometry x="200" y="40" width="120" height="60" as="geometry" />
        </mxCell>
        <mxCell id="D1n73IFMItRvl2_9MY_z-6" value="" style="edgeStyle=orthogonalEdgeStyle;rounded=0;orthogonalLoop=1;jettySize=auto;html=1;" edge="1" parent="D1n73IFMItRvl2_9MY_z-1" source="D1n73IFMItRvl2_9MY_z-7" target="D1n73IFMItRvl2_9MY_z-16">
          <mxGeometry relative="1" as="geometry" />
        </mxCell>
        <mxCell id="D1n73IFMItRvl2_9MY_z-7" value="ゲーム開始" style="rounded=0;whiteSpace=wrap;html=1;" vertex="1" parent="D1n73IFMItRvl2_9MY_z-1">
          <mxGeometry x="200" y="180" width="120" height="60" as="geometry" />
        </mxCell>
        <mxCell id="D1n73IFMItRvl2_9MY_z-8" value="" style="edgeStyle=orthogonalEdgeStyle;rounded=0;orthogonalLoop=1;jettySize=auto;html=1;" edge="1" parent="D1n73IFMItRvl2_9MY_z-1" source="D1n73IFMItRvl2_9MY_z-10" target="D1n73IFMItRvl2_9MY_z-12">
          <mxGeometry relative="1" as="geometry" />
        </mxCell>
        <mxCell id="D1n73IFMItRvl2_9MY_z-9" style="edgeStyle=orthogonalEdgeStyle;rounded=0;orthogonalLoop=1;jettySize=auto;html=1;" edge="1" parent="D1n73IFMItRvl2_9MY_z-1" source="D1n73IFMItRvl2_9MY_z-10" target="D1n73IFMItRvl2_9MY_z-5">
          <mxGeometry relative="1" as="geometry" />
        </mxCell>
        <mxCell id="D1n73IFMItRvl2_9MY_z-10" value="終了確認画面" style="rounded=0;whiteSpace=wrap;html=1;" vertex="1" parent="D1n73IFMItRvl2_9MY_z-1">
          <mxGeometry x="400" y="40" width="120" height="60" as="geometry" />
        </mxCell>
        <mxCell id="D1n73IFMItRvl2_9MY_z-11" value="nを入力" style="text;html=1;align=center;verticalAlign=middle;whiteSpace=wrap;rounded=0;" vertex="1" parent="D1n73IFMItRvl2_9MY_z-1">
          <mxGeometry x="330" y="40" width="60" height="30" as="geometry" />
        </mxCell>
        <mxCell id="D1n73IFMItRvl2_9MY_z-12" value="ゲーム終了" style="rounded=0;whiteSpace=wrap;html=1;" vertex="1" parent="D1n73IFMItRvl2_9MY_z-1">
          <mxGeometry x="610" y="40" width="120" height="60" as="geometry" />
        </mxCell>
        <mxCell id="D1n73IFMItRvl2_9MY_z-13" value="yを入力" style="text;html=1;align=center;verticalAlign=middle;whiteSpace=wrap;rounded=0;" vertex="1" parent="D1n73IFMItRvl2_9MY_z-1">
          <mxGeometry x="540" y="40" width="60" height="30" as="geometry" />
        </mxCell>
        <mxCell id="D1n73IFMItRvl2_9MY_z-14" value="" style="edgeStyle=orthogonalEdgeStyle;rounded=0;orthogonalLoop=1;jettySize=auto;html=1;" edge="1" parent="D1n73IFMItRvl2_9MY_z-1" source="D1n73IFMItRvl2_9MY_z-16" target="D1n73IFMItRvl2_9MY_z-18">
          <mxGeometry relative="1" as="geometry" />
        </mxCell>
        <mxCell id="D1n73IFMItRvl2_9MY_z-15" value="" style="edgeStyle=orthogonalEdgeStyle;rounded=0;orthogonalLoop=1;jettySize=auto;html=1;" edge="1" parent="D1n73IFMItRvl2_9MY_z-1" source="D1n73IFMItRvl2_9MY_z-16" target="D1n73IFMItRvl2_9MY_z-22">
          <mxGeometry relative="1" as="geometry" />
        </mxCell>
        <mxCell id="D1n73IFMItRvl2_9MY_z-16" value="プレイヤーの、マス目入力" style="rounded=0;whiteSpace=wrap;html=1;" vertex="1" parent="D1n73IFMItRvl2_9MY_z-1">
          <mxGeometry x="200" y="310" width="120" height="60" as="geometry" />
        </mxCell>
        <mxCell id="D1n73IFMItRvl2_9MY_z-17" style="edgeStyle=orthogonalEdgeStyle;rounded=0;orthogonalLoop=1;jettySize=auto;html=1;" edge="1" parent="D1n73IFMItRvl2_9MY_z-1" source="D1n73IFMItRvl2_9MY_z-18">
          <mxGeometry relative="1" as="geometry">
            <mxPoint x="270" y="286" as="targetPoint" />
            <Array as="points">
              <mxPoint x="474" y="286" />
              <mxPoint x="431" y="286" />
            </Array>
          </mxGeometry>
        </mxCell>
        <mxCell id="D1n73IFMItRvl2_9MY_z-18" value="エラーメッセージ" style="rounded=0;whiteSpace=wrap;html=1;" vertex="1" parent="D1n73IFMItRvl2_9MY_z-1">
          <mxGeometry x="414" y="310" width="120" height="60" as="geometry" />
        </mxCell>
        <mxCell id="D1n73IFMItRvl2_9MY_z-19" value="不適切な入力" style="text;html=1;align=center;verticalAlign=middle;whiteSpace=wrap;rounded=0;" vertex="1" parent="D1n73IFMItRvl2_9MY_z-1">
          <mxGeometry x="330" y="300" width="60" height="30" as="geometry" />
        </mxCell>
        <mxCell id="D1n73IFMItRvl2_9MY_z-20" value="" style="edgeStyle=orthogonalEdgeStyle;rounded=0;orthogonalLoop=1;jettySize=auto;html=1;" edge="1" parent="D1n73IFMItRvl2_9MY_z-1" source="D1n73IFMItRvl2_9MY_z-22" target="D1n73IFMItRvl2_9MY_z-25">
          <mxGeometry relative="1" as="geometry" />
        </mxCell>
        <mxCell id="D1n73IFMItRvl2_9MY_z-21" style="edgeStyle=orthogonalEdgeStyle;rounded=0;orthogonalLoop=1;jettySize=auto;html=1;" edge="1" parent="D1n73IFMItRvl2_9MY_z-1" source="D1n73IFMItRvl2_9MY_z-22" target="D1n73IFMItRvl2_9MY_z-29">
          <mxGeometry relative="1" as="geometry">
            <mxPoint x="380" y="480" as="targetPoint" />
          </mxGeometry>
        </mxCell>
        <mxCell id="D1n73IFMItRvl2_9MY_z-22" value="盤面更新" style="rounded=0;whiteSpace=wrap;html=1;" vertex="1" parent="D1n73IFMItRvl2_9MY_z-1">
          <mxGeometry x="200" y="450" width="120" height="60" as="geometry" />
        </mxCell>
        <mxCell id="D1n73IFMItRvl2_9MY_z-23" value="適切な&lt;div&gt;入力&lt;/div&gt;" style="text;html=1;align=center;verticalAlign=middle;whiteSpace=wrap;rounded=0;" vertex="1" parent="D1n73IFMItRvl2_9MY_z-1">
          <mxGeometry x="260" y="390" width="60" height="30" as="geometry" />
        </mxCell>
        <mxCell id="D1n73IFMItRvl2_9MY_z-24" style="edgeStyle=orthogonalEdgeStyle;rounded=0;orthogonalLoop=1;jettySize=auto;html=1;entryX=0;entryY=0.5;entryDx=0;entryDy=0;" edge="1" parent="D1n73IFMItRvl2_9MY_z-1" source="D1n73IFMItRvl2_9MY_z-25" target="D1n73IFMItRvl2_9MY_z-16">
          <mxGeometry relative="1" as="geometry">
            <mxPoint x="160" y="330" as="targetPoint" />
            <Array as="points">
              <mxPoint x="161" y="620" />
              <mxPoint x="161" y="340" />
            </Array>
          </mxGeometry>
        </mxCell>
        <mxCell id="D1n73IFMItRvl2_9MY_z-25" value="手番交代" style="rounded=0;whiteSpace=wrap;html=1;" vertex="1" parent="D1n73IFMItRvl2_9MY_z-1">
          <mxGeometry x="200" y="600" width="120" height="60" as="geometry" />
        </mxCell>
        <mxCell id="D1n73IFMItRvl2_9MY_z-26" value="Enter入力" style="text;html=1;align=center;verticalAlign=middle;whiteSpace=wrap;rounded=0;" vertex="1" parent="D1n73IFMItRvl2_9MY_z-1">
          <mxGeometry x="474" y="280" width="66" height="30" as="geometry" />
        </mxCell>
        <mxCell id="D1n73IFMItRvl2_9MY_z-27" style="edgeStyle=orthogonalEdgeStyle;rounded=0;orthogonalLoop=1;jettySize=auto;html=1;" edge="1" parent="D1n73IFMItRvl2_9MY_z-1" source="D1n73IFMItRvl2_9MY_z-29" target="D1n73IFMItRvl2_9MY_z-31">
          <mxGeometry relative="1" as="geometry">
            <mxPoint x="470" y="600" as="targetPoint" />
          </mxGeometry>
        </mxCell>
        <mxCell id="D1n73IFMItRvl2_9MY_z-28" value="" style="edgeStyle=orthogonalEdgeStyle;rounded=0;orthogonalLoop=1;jettySize=auto;html=1;" edge="1" parent="D1n73IFMItRvl2_9MY_z-1" source="D1n73IFMItRvl2_9MY_z-29" target="D1n73IFMItRvl2_9MY_z-34">
          <mxGeometry relative="1" as="geometry" />
        </mxCell>
        <mxCell id="D1n73IFMItRvl2_9MY_z-29" value="終了条件を満たした" style="rounded=0;whiteSpace=wrap;html=1;" vertex="1" parent="D1n73IFMItRvl2_9MY_z-1">
          <mxGeometry x="410" y="450" width="120" height="60" as="geometry" />
        </mxCell>
        <mxCell id="D1n73IFMItRvl2_9MY_z-30" style="edgeStyle=orthogonalEdgeStyle;rounded=0;orthogonalLoop=1;jettySize=auto;html=1;" edge="1" parent="D1n73IFMItRvl2_9MY_z-1" source="D1n73IFMItRvl2_9MY_z-31">
          <mxGeometry relative="1" as="geometry">
            <mxPoint x="470" y="720" as="targetPoint" />
          </mxGeometry>
        </mxCell>
        <mxCell id="D1n73IFMItRvl2_9MY_z-31" value="プレイヤー勝利画面" style="rounded=0;whiteSpace=wrap;html=1;" vertex="1" parent="D1n73IFMItRvl2_9MY_z-1">
          <mxGeometry x="410" y="600" width="120" height="60" as="geometry" />
        </mxCell>
        <mxCell id="D1n73IFMItRvl2_9MY_z-32" value="勝敗が決まった時" style="text;html=1;align=center;verticalAlign=middle;whiteSpace=wrap;rounded=0;" vertex="1" parent="D1n73IFMItRvl2_9MY_z-1">
          <mxGeometry x="410" y="540" width="60" height="30" as="geometry" />
        </mxCell>
        <mxCell id="D1n73IFMItRvl2_9MY_z-33" style="edgeStyle=orthogonalEdgeStyle;rounded=0;orthogonalLoop=1;jettySize=auto;html=1;entryX=0;entryY=0.5;entryDx=0;entryDy=0;" edge="1" parent="D1n73IFMItRvl2_9MY_z-1" source="D1n73IFMItRvl2_9MY_z-34" target="D1n73IFMItRvl2_9MY_z-5">
          <mxGeometry relative="1" as="geometry">
            <mxPoint x="60" y="70" as="targetPoint" />
            <Array as="points">
              <mxPoint x="670" y="615" />
              <mxPoint x="671" y="615" />
              <mxPoint x="671" y="720" />
              <mxPoint x="80" y="720" />
              <mxPoint x="80" y="70" />
            </Array>
          </mxGeometry>
        </mxCell>
        <mxCell id="D1n73IFMItRvl2_9MY_z-34" value="引き分けの画面表示" style="rounded=0;whiteSpace=wrap;html=1;" vertex="1" parent="D1n73IFMItRvl2_9MY_z-1">
          <mxGeometry x="610" y="450" width="120" height="60" as="geometry" />
        </mxCell>
        <mxCell id="D1n73IFMItRvl2_9MY_z-35" value="引き分け" style="text;html=1;align=center;verticalAlign=middle;whiteSpace=wrap;rounded=0;" vertex="1" parent="D1n73IFMItRvl2_9MY_z-1">
          <mxGeometry x="540" y="440" width="60" height="30" as="geometry" />
        </mxCell>
      </root>
    </mxGraphModel>
  </diagram>
  <diagram id="I8FEg7mggNBiePUuelI5" name="ページ4">
    <mxGraphModel dx="1750" dy="883" grid="1" gridSize="10" guides="1" tooltips="1" connect="1" arrows="1" fold="1" page="1" pageScale="1" pageWidth="827" pageHeight="1169" math="0" shadow="0">
      <root>
        <mxCell id="0" />
        <mxCell id="1" parent="0" />
        <mxCell id="j-KutubX_M1xpopolqJ7-2" style="edgeStyle=orthogonalEdgeStyle;rounded=0;orthogonalLoop=1;jettySize=auto;html=1;entryX=0.059;entryY=0.7;entryDx=0;entryDy=0;entryPerimeter=0;" edge="1" parent="1" source="pg99v2_jA6DaJ-cgLAV3-3" target="WAG6ucIpnkCwri7fPw7A-1">
          <mxGeometry relative="1" as="geometry">
            <mxPoint x="380" y="320" as="targetPoint" />
            <Array as="points">
              <mxPoint x="381" y="100" />
              <mxPoint x="381" y="320" />
            </Array>
          </mxGeometry>
        </mxCell>
        <mxCell id="pg99v2_jA6DaJ-cgLAV3-3" value="" style="rounded=0;whiteSpace=wrap;html=1;" vertex="1" parent="1">
          <mxGeometry y="10" width="320" height="180" as="geometry" />
        </mxCell>
        <mxCell id="pg99v2_jA6DaJ-cgLAV3-7" value="" style="edgeStyle=orthogonalEdgeStyle;rounded=0;orthogonalLoop=1;jettySize=auto;html=1;entryX=0;entryY=0.5;entryDx=0;entryDy=0;" edge="1" parent="1" target="pg99v2_jA6DaJ-cgLAV3-8">
          <mxGeometry relative="1" as="geometry">
            <mxPoint x="320" y="100" as="sourcePoint" />
            <mxPoint x="440" y="100" as="targetPoint" />
            <Array as="points" />
          </mxGeometry>
        </mxCell>
        <mxCell id="pg99v2_jA6DaJ-cgLAV3-2" value="&lt;br&gt;三目並べゲーム&lt;div style=&quot;forced-color-adjust: none;&quot;&gt;&lt;br style=&quot;forced-color-adjust: none;&quot;&gt;&lt;div style=&quot;forced-color-adjust: none;&quot;&gt;&lt;span style=&quot;forced-color-adjust: none; background-color: initial;&quot;&gt;Press Y&lt;/span&gt;&lt;span style=&quot;forced-color-adjust: none; background-color: initial;&quot;&gt;&amp;nbsp;to start game&lt;/span&gt;&lt;/div&gt;&lt;div style=&quot;forced-color-adjust: none;&quot;&gt;&lt;span style=&quot;forced-color-adjust: none; background-color: initial;&quot;&gt;Press N&amp;nbsp; to exit game&lt;/span&gt;&lt;/div&gt;&lt;div style=&quot;forced-color-adjust: none;&quot;&gt;&lt;br&gt;&lt;/div&gt;&lt;/div&gt;" style="text;html=1;align=center;verticalAlign=middle;whiteSpace=wrap;rounded=0;" vertex="1" parent="1">
          <mxGeometry x="60" y="55" width="200" height="90" as="geometry" />
        </mxCell>
        <mxCell id="pg99v2_jA6DaJ-cgLAV3-8" value="" style="rounded=0;whiteSpace=wrap;html=1;" vertex="1" parent="1">
          <mxGeometry x="460" y="10" width="320" height="180" as="geometry" />
        </mxCell>
        <mxCell id="pg99v2_jA6DaJ-cgLAV3-6" value="&lt;div style=&quot;forced-color-adjust: none;&quot;&gt;&lt;div style=&quot;forced-color-adjust: none;&quot;&gt;本当に終了しますか?&lt;/div&gt;&lt;div style=&quot;forced-color-adjust: none;&quot;&gt;&lt;br&gt;&lt;/div&gt;&lt;div style=&quot;forced-color-adjust: none;&quot;&gt;はい:Y　 いいえ:N　&lt;/div&gt;&lt;/div&gt;" style="text;html=1;align=center;verticalAlign=middle;whiteSpace=wrap;rounded=0;" vertex="1" parent="1">
          <mxGeometry x="520" y="55" width="200" height="90" as="geometry" />
        </mxCell>
        <mxCell id="pg99v2_jA6DaJ-cgLAV3-9" value="N" style="text;html=1;align=center;verticalAlign=middle;whiteSpace=wrap;rounded=0;" vertex="1" parent="1">
          <mxGeometry x="400" y="70" width="60" height="30" as="geometry" />
        </mxCell>
        <mxCell id="8urOvxdythgUs2S7lg7D-2" style="edgeStyle=orthogonalEdgeStyle;rounded=0;orthogonalLoop=1;jettySize=auto;html=1;entryX=0;entryY=0.5;entryDx=0;entryDy=0;" edge="1" parent="1" source="pg99v2_jA6DaJ-cgLAV3-13" target="j-KutubX_M1xpopolqJ7-4">
          <mxGeometry relative="1" as="geometry" />
        </mxCell>
        <mxCell id="Sh2FsG6exttYrMNdVaie-2" style="edgeStyle=orthogonalEdgeStyle;rounded=0;orthogonalLoop=1;jettySize=auto;html=1;entryX=0.003;entryY=0.618;entryDx=0;entryDy=0;entryPerimeter=0;" edge="1" parent="1" source="pg99v2_jA6DaJ-cgLAV3-13" target="Sh2FsG6exttYrMNdVaie-1">
          <mxGeometry relative="1" as="geometry">
            <mxPoint x="830" y="560" as="targetPoint" />
            <Array as="points">
              <mxPoint x="840" y="310" />
              <mxPoint x="840" y="561" />
            </Array>
          </mxGeometry>
        </mxCell>
        <mxCell id="pg99v2_jA6DaJ-cgLAV3-13" value="" style="rounded=0;whiteSpace=wrap;html=1;" vertex="1" parent="1">
          <mxGeometry x="460" y="220" width="320" height="180" as="geometry" />
        </mxCell>
        <mxCell id="WAG6ucIpnkCwri7fPw7A-1" value="&lt;div style=&quot;font-size: 9px;&quot;&gt;&lt;br style=&quot;font-size: 9px;&quot;&gt;&lt;/div&gt;&lt;div style=&quot;font-size: 9px;&quot;&gt;&lt;div style=&quot;text-align: left; font-size: 9px;&quot;&gt;&amp;nbsp; &amp;nbsp; &amp;nbsp;&amp;nbsp;&lt;/div&gt;&lt;div style=&quot;text-align: left; font-size: 9px;&quot;&gt;&amp;nbsp; &amp;nbsp; &amp;nbsp; 現在の盤面&lt;/div&gt;&lt;span style=&quot;text-align: left; font-size: 9px;&quot;&gt;&amp;nbsp; &amp;nbsp; &amp;nbsp;-----------------&amp;nbsp; &amp;nbsp; &amp;nbsp; &amp;nbsp; &amp;nbsp;&amp;nbsp;&lt;/span&gt;&lt;span style=&quot;text-align: left; white-space: pre; font-size: 9px;&quot;&gt;&#x9;&lt;/span&gt;&lt;span style=&quot;text-align: left; font-size: 9px;&quot;&gt;|&amp;nbsp; &amp;nbsp; &amp;nbsp;&lt;/span&gt;&lt;div style=&quot;text-align: left; font-size: 9px;&quot;&gt;&lt;span style=&quot;background-color: initial; font-size: 9px;&quot;&gt;&amp;nbsp; &amp;nbsp; &amp;nbsp;| 7&amp;nbsp; |&amp;nbsp; 8&amp;nbsp; |&amp;nbsp; 9 |&amp;nbsp; &amp;nbsp;&amp;nbsp;&lt;/span&gt;&lt;span style=&quot;background-color: initial; white-space: pre; font-size: 9px;&quot;&gt;&#x9;&lt;span style=&quot;white-space: pre; font-size: 9px;&quot;&gt;&#x9;&lt;/span&gt;&lt;/span&gt;&lt;span style=&quot;background-color: initial; font-size: 9px;&quot;&gt;|&amp;nbsp; &amp;nbsp; &amp;nbsp;&lt;/span&gt;&lt;div style=&quot;font-size: 9px;&quot;&gt;&amp;nbsp; &amp;nbsp; &amp;nbsp;-----------------&amp;nbsp; &amp;nbsp; &amp;nbsp;&lt;span style=&quot;white-space: pre; font-size: 9px;&quot;&gt;&#x9;&lt;/span&gt;&lt;span style=&quot;white-space: pre; font-size: 9px;&quot;&gt;&#x9;&lt;/span&gt;|&amp;nbsp; &amp;nbsp; &amp;nbsp;&lt;/div&gt;&lt;div style=&quot;font-size: 9px;&quot;&gt;&amp;nbsp; &amp;nbsp; &amp;nbsp;| 4&amp;nbsp; |&amp;nbsp; 5&amp;nbsp; |&amp;nbsp; 6 |&amp;nbsp; &amp;nbsp; &amp;nbsp;&amp;nbsp;&lt;span style=&quot;white-space: pre; font-size: 9px;&quot;&gt;&#x9;&lt;/span&gt;&lt;span style=&quot;white-space: pre; font-size: 9px;&quot;&gt;&#x9;&lt;/span&gt;|&amp;nbsp; &amp;nbsp; &amp;nbsp;&lt;/div&gt;&lt;div style=&quot;font-size: 9px;&quot;&gt;&amp;nbsp; &amp;nbsp; &amp;nbsp;-----------------&amp;nbsp; &amp;nbsp; &amp;nbsp;&lt;span style=&quot;white-space: pre; font-size: 9px;&quot;&gt;&#x9;&lt;/span&gt;&lt;span style=&quot;white-space: pre; font-size: 9px;&quot;&gt;&#x9;&lt;/span&gt;|&amp;nbsp; &amp;nbsp; &amp;nbsp;&lt;/div&gt;&lt;div style=&quot;font-size: 9px;&quot;&gt;&amp;nbsp; &amp;nbsp; &amp;nbsp;| 1&amp;nbsp; |&amp;nbsp; 2&amp;nbsp; |&amp;nbsp; 3 |&amp;nbsp; &amp;nbsp; &amp;nbsp;&amp;nbsp;&lt;span style=&quot;white-space: pre; font-size: 9px;&quot;&gt;&#x9;&lt;/span&gt;&lt;span style=&quot;white-space: pre; font-size: 9px;&quot;&gt;&#x9;&lt;/span&gt;|&amp;nbsp; &amp;nbsp; &amp;nbsp;&lt;/div&gt;&lt;div style=&quot;font-size: 9px;&quot;&gt;&amp;nbsp; &amp;nbsp; &amp;nbsp;-----------------&amp;nbsp; &amp;nbsp; &amp;nbsp;&lt;span style=&quot;white-space: pre; font-size: 9px;&quot;&gt;&#x9;&lt;/span&gt;&lt;span style=&quot;white-space: pre; font-size: 9px;&quot;&gt;&#x9;&lt;/span&gt;|&amp;nbsp; &amp;nbsp; &amp;nbsp;&lt;/div&gt;&lt;div style=&quot;font-size: 9px;&quot;&gt;&amp;nbsp; &amp;nbsp; &amp;nbsp; &amp;nbsp; &amp;nbsp; &amp;nbsp; &amp;nbsp; &amp;nbsp; &amp;nbsp; &amp;nbsp; &amp;nbsp; &amp;nbsp; &amp;nbsp; &amp;nbsp; &amp;nbsp; &amp;nbsp;&amp;nbsp;&lt;span style=&quot;white-space: pre; font-size: 9px;&quot;&gt;&#x9;&lt;/span&gt;&amp;nbsp; &amp;nbsp; &amp;nbsp;&amp;nbsp;&lt;/div&gt;&lt;div style=&quot;font-size: 9px;&quot;&gt;プレイヤー1 ( o ) の入力 :&lt;/div&gt;&lt;/div&gt;&lt;/div&gt;" style="text;html=1;align=center;verticalAlign=middle;whiteSpace=wrap;rounded=0;fontSize=9;" vertex="1" parent="1">
          <mxGeometry x="450" y="255" width="170" height="100" as="geometry" />
        </mxCell>
        <mxCell id="j-KutubX_M1xpopolqJ7-1" value="&lt;div style=&quot;text-align: left; font-size: 9px;&quot;&gt;&lt;span style=&quot;background-color: initial; font-size: 9px;&quot;&gt;&amp;nbsp;------------------------ルール -----------------------&lt;/span&gt;&lt;/div&gt;&lt;div style=&quot;text-align: left; font-size: 9px;&quot;&gt;&lt;span style=&quot;font-size: 9px;&quot;&gt;1. 終了条件&lt;/span&gt;&lt;span style=&quot;text-align: left; font-size: 9px;&quot;&gt;&lt;br style=&quot;font-size: 9px;&quot;&gt;&lt;/span&gt;&lt;/div&gt;&lt;div style=&quot;text-align: left; font-size: 9px;&quot;&gt;一列・一行・斜めにoかxが揃うと勝ち&lt;span style=&quot;font-size: 9px;&quot;&gt;&lt;br style=&quot;font-size: 9px;&quot;&gt;&lt;/span&gt;&lt;/div&gt;&lt;div style=&quot;text-align: left; font-size: 9px;&quot;&gt;&lt;div style=&quot;font-size: 9px;&quot;&gt;9マス全て揃い勝者がいなければ引き分け&lt;/div&gt;&lt;div style=&quot;font-size: 9px;&quot;&gt;&lt;br style=&quot;font-size: 9px;&quot;&gt;&lt;/div&gt;&lt;div style=&quot;font-size: 9px;&quot;&gt;2. 入力方法&lt;br style=&quot;font-size: 9px;&quot;&gt;&lt;/div&gt;&lt;div style=&quot;font-size: 9px;&quot;&gt;&amp;nbsp;左のマス目の数字を入力してください。&lt;br style=&quot;font-size: 9px;&quot;&gt;&lt;/div&gt;&lt;div style=&quot;font-size: 9px;&quot;&gt;oかxが入っているマスは既に入力済みです。&lt;br style=&quot;font-size: 9px;&quot;&gt;&lt;/div&gt;&lt;/div&gt;" style="text;html=1;align=center;verticalAlign=middle;whiteSpace=wrap;rounded=0;fontSize=9;" vertex="1" parent="1">
          <mxGeometry x="590" y="250" width="200" height="100" as="geometry" />
        </mxCell>
        <mxCell id="j-KutubX_M1xpopolqJ7-3" value="Y" style="text;html=1;align=center;verticalAlign=middle;whiteSpace=wrap;rounded=0;" vertex="1" parent="1">
          <mxGeometry x="370" y="230" width="60" height="30" as="geometry" />
        </mxCell>
        <mxCell id="Sh2FsG6exttYrMNdVaie-6" style="edgeStyle=orthogonalEdgeStyle;rounded=0;orthogonalLoop=1;jettySize=auto;html=1;entryX=0;entryY=0.5;entryDx=0;entryDy=0;" edge="1" parent="1" source="j-KutubX_M1xpopolqJ7-4" target="Sh2FsG6exttYrMNdVaie-5">
          <mxGeometry relative="1" as="geometry" />
        </mxCell>
        <mxCell id="j-KutubX_M1xpopolqJ7-4" value="" style="rounded=0;whiteSpace=wrap;html=1;" vertex="1" parent="1">
          <mxGeometry x="910" y="220" width="320" height="180" as="geometry" />
        </mxCell>
        <mxCell id="j-KutubX_M1xpopolqJ7-5" value="適切な入力" style="text;html=1;align=center;verticalAlign=middle;whiteSpace=wrap;rounded=0;" vertex="1" parent="1">
          <mxGeometry x="840" y="280" width="70" height="30" as="geometry" />
        </mxCell>
        <mxCell id="j-KutubX_M1xpopolqJ7-6" value="&lt;div style=&quot;text-align: left; font-size: 9px;&quot;&gt;&lt;span style=&quot;background-color: initial; font-size: 9px;&quot;&gt;&amp;nbsp;------------------------ルール -----------------------&lt;/span&gt;&lt;/div&gt;&lt;div style=&quot;text-align: left; font-size: 9px;&quot;&gt;&lt;span style=&quot;font-size: 9px;&quot;&gt;1. 終了条件&lt;/span&gt;&lt;span style=&quot;text-align: left; font-size: 9px;&quot;&gt;&lt;br style=&quot;font-size: 9px;&quot;&gt;&lt;/span&gt;&lt;/div&gt;&lt;div style=&quot;text-align: left; font-size: 9px;&quot;&gt;一列・一行・斜めにoかxが揃うと勝ち&lt;span style=&quot;font-size: 9px;&quot;&gt;&lt;br style=&quot;font-size: 9px;&quot;&gt;&lt;/span&gt;&lt;/div&gt;&lt;div style=&quot;text-align: left; font-size: 9px;&quot;&gt;&lt;div style=&quot;font-size: 9px;&quot;&gt;9マス全て揃い勝者がいなければ引き分け&lt;/div&gt;&lt;div style=&quot;font-size: 9px;&quot;&gt;&lt;br style=&quot;font-size: 9px;&quot;&gt;&lt;/div&gt;&lt;div style=&quot;font-size: 9px;&quot;&gt;2. 入力方法&lt;br style=&quot;font-size: 9px;&quot;&gt;&lt;/div&gt;&lt;div style=&quot;font-size: 9px;&quot;&gt;&amp;nbsp;左のマス目の数字を入力してください。&lt;br style=&quot;font-size: 9px;&quot;&gt;&lt;/div&gt;&lt;div style=&quot;font-size: 9px;&quot;&gt;oかxが入っているマスは既に入力済みです。&lt;br style=&quot;font-size: 9px;&quot;&gt;&lt;/div&gt;&lt;/div&gt;" style="text;html=1;align=center;verticalAlign=middle;whiteSpace=wrap;rounded=0;fontSize=9;" vertex="1" parent="1">
          <mxGeometry x="1041" y="245" width="200" height="100" as="geometry" />
        </mxCell>
        <mxCell id="8urOvxdythgUs2S7lg7D-1" value="&lt;div style=&quot;font-size: 9px;&quot;&gt;&lt;br style=&quot;font-size: 9px;&quot;&gt;&lt;/div&gt;&lt;div style=&quot;font-size: 9px;&quot;&gt;&lt;div style=&quot;text-align: left; font-size: 9px;&quot;&gt;&amp;nbsp; &amp;nbsp; &amp;nbsp;&amp;nbsp;&lt;/div&gt;&lt;div style=&quot;text-align: left; font-size: 9px;&quot;&gt;&amp;nbsp; &amp;nbsp; &amp;nbsp; 現在の盤面&lt;/div&gt;&lt;span style=&quot;text-align: left; font-size: 9px;&quot;&gt;&amp;nbsp; &amp;nbsp; &amp;nbsp;-----------------&amp;nbsp; &amp;nbsp; &amp;nbsp; &amp;nbsp; &amp;nbsp;&amp;nbsp;&lt;/span&gt;&lt;span style=&quot;text-align: left; white-space: pre; font-size: 9px;&quot;&gt;&#x9;&lt;/span&gt;&lt;span style=&quot;text-align: left; font-size: 9px;&quot;&gt;|&amp;nbsp; &amp;nbsp; &amp;nbsp;&lt;/span&gt;&lt;div style=&quot;text-align: left; font-size: 9px;&quot;&gt;&lt;span style=&quot;background-color: initial; font-size: 9px;&quot;&gt;&amp;nbsp; &amp;nbsp; &amp;nbsp;| x&amp;nbsp; |&amp;nbsp; 8&amp;nbsp; |&amp;nbsp; 9 |&amp;nbsp; &amp;nbsp;&amp;nbsp;&lt;/span&gt;&lt;span style=&quot;background-color: initial; white-space: pre; font-size: 9px;&quot;&gt;&#x9;&lt;span style=&quot;white-space: pre; font-size: 9px;&quot;&gt;&#x9;&lt;/span&gt;&lt;/span&gt;&lt;span style=&quot;background-color: initial; font-size: 9px;&quot;&gt;|&amp;nbsp; &amp;nbsp; &amp;nbsp;&lt;/span&gt;&lt;div style=&quot;font-size: 9px;&quot;&gt;&amp;nbsp; &amp;nbsp; &amp;nbsp;-----------------&amp;nbsp; &amp;nbsp; &amp;nbsp;&lt;span style=&quot;white-space: pre; font-size: 9px;&quot;&gt;&#x9;&lt;/span&gt;&lt;span style=&quot;white-space: pre; font-size: 9px;&quot;&gt;&#x9;&lt;/span&gt;|&amp;nbsp; &amp;nbsp; &amp;nbsp;&lt;/div&gt;&lt;div style=&quot;font-size: 9px;&quot;&gt;&amp;nbsp; &amp;nbsp; &amp;nbsp;| 4&amp;nbsp; |&amp;nbsp; o&amp;nbsp; |&amp;nbsp; 6 |&amp;nbsp; &amp;nbsp; &amp;nbsp;&amp;nbsp;&lt;span style=&quot;white-space: pre; font-size: 9px;&quot;&gt;&#x9;&lt;/span&gt;&lt;span style=&quot;white-space: pre; font-size: 9px;&quot;&gt;&#x9;&lt;/span&gt;|&amp;nbsp; &amp;nbsp; &amp;nbsp;&lt;/div&gt;&lt;div style=&quot;font-size: 9px;&quot;&gt;&amp;nbsp; &amp;nbsp; &amp;nbsp;-----------------&amp;nbsp; &amp;nbsp; &amp;nbsp;&lt;span style=&quot;white-space: pre; font-size: 9px;&quot;&gt;&#x9;&lt;/span&gt;&lt;span style=&quot;white-space: pre; font-size: 9px;&quot;&gt;&#x9;&lt;/span&gt;|&amp;nbsp; &amp;nbsp; &amp;nbsp;&lt;/div&gt;&lt;div style=&quot;font-size: 9px;&quot;&gt;&amp;nbsp; &amp;nbsp; &amp;nbsp;| 1&amp;nbsp; |&amp;nbsp; 2&amp;nbsp; |&amp;nbsp; o |&amp;nbsp; &amp;nbsp; &amp;nbsp;&amp;nbsp;&lt;span style=&quot;white-space: pre; font-size: 9px;&quot;&gt;&#x9;&lt;/span&gt;&lt;span style=&quot;white-space: pre; font-size: 9px;&quot;&gt;&#x9;&lt;/span&gt;|&amp;nbsp; &amp;nbsp; &amp;nbsp;&lt;/div&gt;&lt;div style=&quot;font-size: 9px;&quot;&gt;&amp;nbsp; &amp;nbsp; &amp;nbsp;-----------------&amp;nbsp; &amp;nbsp; &amp;nbsp;&lt;span style=&quot;white-space: pre; font-size: 9px;&quot;&gt;&#x9;&lt;/span&gt;&lt;span style=&quot;white-space: pre; font-size: 9px;&quot;&gt;&#x9;&lt;/span&gt;|&amp;nbsp; &amp;nbsp; &amp;nbsp;&lt;/div&gt;&lt;div style=&quot;font-size: 9px;&quot;&gt;&amp;nbsp; &amp;nbsp; &amp;nbsp; &amp;nbsp; &amp;nbsp; &amp;nbsp; &amp;nbsp; &amp;nbsp; &amp;nbsp; &amp;nbsp; &amp;nbsp; &amp;nbsp; &amp;nbsp; &amp;nbsp; &amp;nbsp; &amp;nbsp;&amp;nbsp;&lt;span style=&quot;white-space: pre; font-size: 9px;&quot;&gt;&#x9;&lt;/span&gt;&amp;nbsp; &amp;nbsp; &amp;nbsp;&amp;nbsp;&lt;/div&gt;&lt;div style=&quot;font-size: 9px;&quot;&gt;プレイヤー1 ( o ) の入力 : 3&lt;/div&gt;&lt;/div&gt;&lt;/div&gt;" style="text;html=1;align=center;verticalAlign=middle;whiteSpace=wrap;rounded=0;fontSize=9;" vertex="1" parent="1">
          <mxGeometry x="921" y="245" width="120" height="110" as="geometry" />
        </mxCell>
        <mxCell id="8urOvxdythgUs2S7lg7D-3" value="" style="rounded=0;whiteSpace=wrap;html=1;" vertex="1" parent="1">
          <mxGeometry x="910" y="450" width="320" height="180" as="geometry" />
        </mxCell>
        <mxCell id="Sh2FsG6exttYrMNdVaie-1" value="正しいマス目を入力してください&lt;div&gt;&lt;br&gt;&lt;/div&gt;&lt;div&gt;Press Enter to next input&amp;nbsp;&lt;/div&gt;" style="text;html=1;align=center;verticalAlign=middle;whiteSpace=wrap;rounded=0;" vertex="1" parent="1">
          <mxGeometry x="910" y="450" width="320" height="180" as="geometry" />
        </mxCell>
        <mxCell id="Sh2FsG6exttYrMNdVaie-3" value="不適切な入力" style="text;html=1;align=center;verticalAlign=middle;whiteSpace=wrap;rounded=0;fontSize=11;" vertex="1" parent="1">
          <mxGeometry x="841" y="420" width="80" height="30" as="geometry" />
        </mxCell>
        <mxCell id="Sh2FsG6exttYrMNdVaie-5" value="" style="rounded=0;whiteSpace=wrap;html=1;" vertex="1" parent="1">
          <mxGeometry x="1350" y="220" width="320" height="180" as="geometry" />
        </mxCell>
        <mxCell id="Sh2FsG6exttYrMNdVaie-11" value="" style="shape=image;verticalLabelPosition=bottom;labelBackgroundColor=default;verticalAlign=top;aspect=fixed;imageAspect=0;image=data:image/png,iVBORw0KGgoAAAANSUhEUgAABAEAAAKzCAYAAABvURRcAAAAAXNSR0IArs4c6QAAAARnQU1BAACxjwv8YQUAAAAJcEhZcwAADsMAAA7DAcdvqGQAAH3ESURBVHhe7f17qCT1/Sf+l59vYNcbLMqgfKOrxDE4gusVNKP+QFETshKdcc3iNayIflT8EeMNmQ/jT/kMrqPGgGg+ighqVDauYwwS4gXD4jhRmPWC4LiOBkU/4GAMC97+CKy/fdZUzdTp0/fT50yfU48HNN1V3V1d1656vd6X2u3b/6sAAAAAlrx/qJ4BAACAJU4SAAAAAFpit+8sP1ZzAAAAAFji/r51s5oAAAAA0BY7agL8dv2acgQAAACwdPz0hnXls5oAAAAA0CKSAAAAANASkgAAAADQEpIAAAAA0BKSAAAAANASkgAAAADQEpIAAAAA0BKSAAAAANASkgAAAADQEpIAAAAA0BKSAAAAANASkgAAAADQEpIAAAAA0BKSAAAAANASkgAAAADQEpIAAAAA0BKSAAAAANASkgAAAADQEpIAAAAA0BKSAAAAANASkgAAAADQEpIAAAAA0BKSAAAAANASkgAAAADQEpIAAAAA0BKSAAAAANASkgAAAADQEpIAAAAA0BKSAAAAANASkgAAAADQEpIAAAAA0BKSAAAAANASkgAAAADQEpIAAAAA0BKSAAAAANASkgAAAADQEpIAAAAA0BKSAAAAANASkgAAAADQEpIAAAAA0BKSAAAAANASkgAAAADQEpIAAAAA0BKSAAAAANASkgAAAADQEpIAAAAA0BKSAAAAANASkgAAAADQEpIAAAAA0BKSAAAAANASkgAAAADQEpIAAAAA0BK7fWf5sd/mxW/XrylHtMnq1aurV7OtW7euWLFiRTVUFE8//XTx6KOPVkMzHXXUUcXatWuroe1uvfXW4s0336yGZrrooouKVatWVUNFsWXLlmLNmt7rf8OGDdWr7Uadl8W6nKNMOyzn3JdzlGlbzu3mspzTdOy3ZTmn6dhvy3JO07HfluWclmM/2rCc03Tst2U5p+nYb8tyTtOxz3h+esO68vnvWze3OwmQHa6XlStXFvvtt181tP1Aeffdd6uhmZYtW1acdNJJ1dB2GzduLD777LNqaKbDDjtsxo6/bdu2YtOmTdXQbJ0H1ajzsliXc5Rph+Wc+3KOMm3Lud1clnOajv22LOc0HfttWc5pOvbbspzTcuxHG5Zzmo79tiznNB37bVnOaTr2GY8kAAAAALREMwmgTwAAAABoCUkAAAAAaAlJAAAAAGgJSQAAAABoCUkAAAAAaAlJAAAAAGgJSQAAAABoCUkAAAAAaAlJAAAAAGgJSQAAAABoCUkAAAAAaAlJAAAAAGgJSQAAAABoCUkAAAAAaAlJAAAAAGgJSQAAAABoCUkAAAAAaAlJAAAAAGgJSQAAAABoCUkAAAAAaAlJAAAAAGgJSQAAAABoCUkAAAAAaAlJAAAAAGgJSQAAAABoCUkAAAAAaAlJAAAAAGiJJZMEWL16dbFly5ZqaGn68MMPi8cee6waminv3XrrrdXQ9Hj66aeLjRs3VkMAAACTlTgocQfDURNgniUAzk45zGNQsHzwwQcXn376addkx/PPP1+ce+651dDCyXy//vrr1dBOX3zxRfneaaedVrz00ksLmqC56667/AkAAAB0sdt3lh/7bV78dv2acsRilZoA69atK1asWFGNmZsEsKM49dRTi5NOOqka2qkORletWlU+9zLs57Zt21bccsstxX333VeN2T7u/vvvL9auXVuNmZvUKkhS4bLLLqvGdFfPy+23317svffe1didEvg/+eSTxTXXXFM88cQTA6c3KVdeeWVx/vnnd90eAADA0pLY7YgjjhgYS7XZT29YVz7/fetmSYD5NkoSYNmyZUMFril5P+aYY6qhonjggQeKk08+eSLLnmmdccYZxXvvvVd89tlnxQUXXFC9M1s+m3nut2xZrsMOO2zBtku3JAkAALB0SQIM1kwCaA4wRfbdd9/q1U7pAyA7dfPx7LPPzhhOM4KUuDfH5ZES/VGdd955xSOPPFJ8//vfL5sepFp/Nwm287up7t9PDsSFTMy89dZbxYknnlgNAQDAdMq19MUXX1wNdZdmrr36BINxqQkwz1IS/sILLxT7779/Naa7BNxXX331UPPfrF1QV7kftSlA/kyeeuqp4kc/+lEZ+Der8yd58Morr/StBZAkw5tvvlkN9XfUUUdNrKnCINdff31x1VVXlf0nAADAtEph289+9rPil7/8Zc9r1yQJct29ENe2SUqkpu9NN900dEyVuCEFiIkL9tprr+KHP/xh3xhivmQdqQnQn5oAC+z0008vg+B+j3xmIdQd9n311VfFww8/XFbn76w1kD+ZfgdvkhCZTr6/YcOGHY8kYRLwN8flkeVbCKmdkOWSAAAAYNqlEC7Xzm+88UY1ZqYU9iWwnu9r2/xO4oF33nmnWL58eTV2sFx75zr/hBNOKK/577jjjjIZoObC9JMEWATSB8CgOwc0pWO8btX4E+jnAM+Bmk768seTbFlqAqxfv36o38hnkgTIAd+tM8Bh9WpmMBcvvvhicfbZZ1dDAAAw3XJdvmnTpmpopsQASRLMt48//nhHfDCKXHunP7P0Jxb77bdfcd1115W1jefjWp/JkQToo1t7/G6Pcdrej+LQQw8tnnnmmWqov/rPojNAz/gE+medddaOA7WWTgZvvvnm8jfS7qjXQZvlzGeyzN0SAPkDOeSQQ6qh/lL1KU04RnnUzSB6ee6554of/OAH1dB2deIDAACmzZFHHll88MEHZal6pzTPPe6446qhnXJNnGYCuT5OU9jOW3HXJfuRzw66Fk5s0BkfDCOl/ocffng1tF0SAYkHtm7dWo1hGukTYJ7lwJtEnwBJSOS9BOx1MNytT4Ac5Jdffnl5ANYS1N99993ln8Wg6kSZdh4///nPZ9yBYBhJIJxyyilDfS9/dM15nKvUUEgVpm4ZzLyXOx1oIwQAwLRJIJ+CuuZdwnKtnPFpb9+U6/TUHEiJe66lEwvcdtttZQxQX+fX8UFK999+++3inHPOGbpJQaZz7rnnDhVT9Yq/Mo2Fbp+/K35zsdEnwAKbRJ8A6fH+T3/6UzXUXQ74JBs6g+uU2uc3hjn4c+DkIMp9/fPcLSvZTT6XnvmHTRxMMgEQL730Us8MZv5QkwSY7xobAAAwqtTife2116qh7XJd3Xnr8FxvJwmQ6/r6WjoBeArBUgW/UxIA11577bz2KbDPPvtUr3YatmYwu44kwCKRgze1Bfp56KGHyiziXOW30rFHsof3339/Nba/3/zmN7ss85bkR2o7fPPNN+XrNH2oazQkkZHHH//4x+Lee++tvgEAANMhhX0J+pteffXVWVXtU8U+zQc6m+VmXJoONKWq/oUXXlgNzZ9uBXt77LFH9YppJQkwRRLE9pPAvJ/cGm+SJewpWU+mcZDcSiS98i90EiDV/FMNac2aNeXvp9pTHkkExJ577llWZ8ojPZamb4VhOj8EAICFkgK43AUgBVmRwq0E8Qnum1KzNcF+rn+bj/S11c2ka952062m7ddff129YlpJAkyRjz76qHo1nvms6tNN/qCSAEhW8pprrqnGLpz8Mea+qgnw77vvvh1NK3J7wyQkksRIFam6nVKG028AAABMkzQJqAuyUisgtQO6dcSd9v31bbg7H7tCt0LMdHTIdNMxYIeUFKd9+bg6S85TJX3YjgHTL0CzND2Ztc7OQKJuFpBpJhBP+6Bu9/RMe5x+9/ufi7qzwfn8DQAAaIPUAkifXKn5m0K2FO519ndVxymDauommZCasuMkBtKMdtiOAbt1aBi5Xfmll146cifjc5H51jFgf82OASUB5lmSADFohxz2cwAAwNKTO3klCXDLLbeUt+/urM6fgr8rrrii+PWvfz3jvQT9zbuFLVQSIHcvS5Pc5t256nl8+OGHu9ZkmC+SAIO5O8ACyo44zM447OcAAIClJ01dX3zxxbJfq27t+TMuzQHuvPPOMtiOBPzpHDwB8HzK76TQtS64jNNOO62snfD888+Xw5mnzFvmcSETAIxOEgAAAGAXO/7448tb/fW7dXia4a5cubKsLZCg/J577imH51KYmMA+08ojHRKmFkFep3S9tvvuu5f9Fixbtqwasz0pkc+k6XM+n+YBmRdNhaef5gAAAAAsWpoDDKY5AAAAALSQJAAAAAC0hCQAAAAAtIQkAAAAALSEJAAAAAC0xJK5OwAAAAAwm7sDAAAAQAtJAgAAAEBLSAIAAABAS0gCAAAAQEtIAgAAAEBLSAIAAABAS0gCAAAAQEtIAgAAAEBLSAIAAABAS0gCAAAAQEtIAgAAAEBLSAIAAABAS0gCAAAAQEtIAgAAAEBLSAIAAABAS0gCAAAAQEtIAgAAAEBLSAIAAABAS0gCAAAAQEtIAgAAAEBLSAIAAABAS0gCAAAAQEtIAgAAAEBLSAIAAABAS0gCAAAAQEtIAgAAAEBLSAIAAABAS0gCAAAAQEtIAgAAAEBLSAIAAABAS0gCAAAAQEtIAgAAAEBL7Pad5cd+mxe/Xb+mHNEmq1evrl7Ntm7dumLFihXVUFE8/fTTxaOPPloNzXTUUUcVa9eurYa2u/XWW4s333yzGprpoosuKlatWlUNFcWWLVuKNWt6r/8NGzZUr7YbdV4W63KOMu2wnHNfzlGmbTm3m8tyTtOx35blnKZjvy3LOU3HfluWc1qO/WjDck7Tsd+W5ZymY78tyzlNxz7j+ekN68rnv2/d3O4kQHa4XlauXFnst99+1dD2A+Xdd9+thmZatmxZcdJJJ1VD223cuLH47LPPqqGZDjvssBk7/rZt24pNmzZVQ7N1HlSjzstiXc5Rph2Wc+7LOcq0Led2c1nOaTr227Kc03Tst2U5p+nYb8tyTsuxH21Yzmk69tuynNN07LdlOafp2Gc8kgAAAADQEs0kgD4BAAAAoCUkAQAAAKAlJAEAAACgJSQBAAAAoCUkAQAAAKAlJAEAAACgJSQBAAAAoCUkAQAAAKAlJAEAAACgJSQBAAAAoCUkAQAAAKAlJAEAAACgJSQBAAAAoCUkAQAAAKAlJAEAAACgJSQBAAAAoCUkAQAAAKAlJAEAAACgJSQBAAAAoCUkAQAAAKAlJAEAAACgJSQBAAAAoCUkAQAAAKAlJAEAAACgJSQBAAAAoCUkAQAAAKAlJAEAAACgJSQBAAAAoCUkAQAAAKAlJAEAAACgJSQBAAAAoCWWTBJg9erVxZYtW6ohAAAAoJOaAAAAACx6t956a/H0009XQ/QiCQAAAAAtIQkAAAAALSEJAAAAAC0hCQAAAAAtIQkAAAAALSEJAAAAAC0hCQAAAAAtIQkAAAAALSEJAAAAAC0hCQAAAAAtIQkAAAAALSEJAAAAAC0hCQAAAAAtIQkAAAAALSEJAAAAAC0hCQAAAAAtIQkAAAAALSEJAAAAAC0hCQAAAAAtIQkAAAAALSEJAAAAAC0hCQAAAAAtsWSSABs2bChWrFhRDQEAAACd1AQAAABg0Vu7dm2xatWqaoheJAEAAACgJSQBAAAAoCUkAQAAAKAlJAEAAACgJSQBAAAAoCUkAQAAAKAlJAEAAACgJSQBAAAAoCUkAQAAAKAlJAEAAACgJSQBAAAAoCUkAQAAAKAlJAEAAACgJSQBAAAAoCUkAQAAAKAllkwSYPXq1cWWLVuqIQAAAKCTmgAAAADQEpIAAFPk6aefLm699dZqCAAAJksSAAAAgCVBgcpgkgAAAADQEpIAAAAA0BKSAAAAANASkgBMpbvuuqvYtm1bNbRrZB6++OKLami7Dz/8sGxjVD82btxYvQMAADD9dvvO8mO/zYvfrl9TjlisVq9eXaxbt65YsWJFNYb5lOD3pZdeqoZ2Wrt2bd+OOA455JDiggsuqIZ6u/LKK4v77ruvGlpY9fy///77xfLly8vXF198cXHwwQcXW7ZsKd59991i1apVM1439Vv+QU499dTipJNOqoZoo3Rm8/bbb5fHEsBCmqZrqZxLjzjiiFnnWIBBXEt199Mb1pXPf9+6WRKAuUkg/OSTT844yHLi7nXQ9Xuv9vrrrxebN28uLrvssmrMwnrggQeK8847r/j666+L/fbbr/wjOeyww8p9K68POuig4phjjpmRBMj4o48+ukwU9JJaBVn+O+64oxoDszlxAQsl56Rm8jnD55577i65lsp/32effbbj3J/hkAQARuVaqrtmEkBzAHapXHB0Ph588MHizTff7Ppe89GvKn4C9ATzqVGQBFEeeZ1xea+fZcuWFXvvvXfxm9/8ZkZzgCQn8oeSBEDss88+xaZNm8p5yfh+CYB46623itNPP70aAoBdL4H3tPj000+rVwDMJzUBmJNuNQFSdb6uRt9Nv6xc+gG45ZZb5tQU4LHHHiteeeWV4vzzzy8OPfTQ4oorrig2bNhQBvQJxB9//PHixBNP7NksIdnDlDxkXr755ptyWl999VVx1llnlTUDxnX99dcX11133ZymwdInew0slCSx1QQAlhrXUt1pDsDETLo5QDrj+/GPfzxjO+ZAXrly5VDBc0r6I9X5U5qfwP/GG2+ckVSoq+WnVP6MM86oxm4v6f/oo4/K3zvyyCPLwH///fcvSyZykZT3Pvjgg+rTO3W2WUzngY888kg1tFOzj4Fuhu0vgaXNiWty8v+0Zk3vc1uSg01Z948++mg1NNNRRx01a5vkvNNL5/lo1GnnPyo1orq56KKLZvznWM7tOpdzlGlHW5azKd9tBv2dwwsp6zTq+e0c7mc+t90o017M++i0LOc0/Z8t5uVsu6wv11KzSQLMs/n8E5iWE0Yd6CagTol5gts6iM089jroer2XaaSUPtPt7Asg37n88ssHJgHqzgqb08/6/cMf/lBce+211ZjtutU4yG9HlivTyPrI+sxz3SdAEgV//etfdyQPknQ47rjjdjQRiPzmoMRIPtPsVLDbd0b9w1+sJzZmcuKanBznabLTS+f/ZX1cdpNmQp2ddmZb9bKyI3E56rTzf9armnb9f1SznNt1Luco0462LGdTmsndcMMNO5qz5b++WxIg5/o///nPO859GU6ifZJyPs181L9Rb4/O5Y281xw/n9tulGkv5n10WpZzmv7PFvNytl22s2up2SQB5tk0nezn84QR+c4kmgMkuH7iiSfK9zovLHolDjrlYubmm2+esUxZ/j333HNGiX8t1fOvuuqqGW35sz2eeeaZMhGRC5I8ZxrNdZvmBukc8J133ikOP/zwWeul2zoZJwkw6vZYrCc2ZnLiAhZCAvmcA5s113olAVJLLzXj6tpqOT/1S/b20u86rfOcXJ/TOs8Zzz//fPHCCy/oZBfoybVUd5IATMwwAW9Tt/dSAp9xOdF3CxCHSQJkGvfee++si4JugX6t28VOAv+TTz65HJfAN4F2ZxIg49OvQJIL3dr4d1snnYmRXHwlMK+Xt9t3aCcnLmAh5Fz22muvzagp13lezLkq58Uk5ztr6SXh23n+G1emlfN1MyHRLQmQcUky5/9x0jURgKXDtVR37g7AvMjFwqhyEZKT/oUXXliN2T4uFyL1I23pm8N55DNN6cAvVeSbclGRdv3dEgDdJJGQZagvftKpYH6rLtVOSUguhiLNCJIASK2BfKa+WOklCYD8EdWPSy65pHoHABZektnpg6eXnA9zfuuWAIhJJQAi59JuhQBNOf9KAABMhiQAc5YLhQTBd999d/m6W9BeP5oSpKcU4pprrikOPPDAamxRlr43A+bOADqPbk0TOuViodct+TKfaeN+wAEHVGOKMlnQLBHJBU5+K7UL8rm8lwuh+rfzfoYz/0cffXQ5DgCmXc7Zqd7frAnXlCZ6qUWXc2i3BMAkpSZcEvunnXZaNWamJOhTSyByTpYAAJg7SQDGlhP3yy+/XJa2p416fXJOyX4C48i49J6f6oV5nUctQXQC60mc0HPP/mbHdQny02aw10VF+h/40Y9+1PW3O2si5JEER+e4PFI7INMYVNugMzHy0EMPVe8AwMLJOS5JgPo83ZRz5z333FM8+OCDxU033dS1P51JSoB/2223lb/VeT7++uuvy/N4rhvqZMQkrhcAkARgTLmASAIg7edTNb6zZD69CJ9wwgnV0PxLQiEXB7m4yUVMAu1cNHS7YEiVwnwutxHsJh3gdSYt6tedCY0kQIahOQAAu1pq4KUZQM6R3c6PaQaXpnW33357z1oCk5S+fBLcd/utdMCbvndSG2++kxEAbSMJwFjSdq/XiTuZ/VdffbX4wQ9+UI2ZKTUI0rvvpKXzvVzcpApjs9O9yDzlN3MHga1bt/a8AAKApSoJ8yTue9Vey3l9IUvcE+D3at6X8Xk/8wzAZLk7ABNTB9qffvppWc2wvohIrYHO3vVTza+Z2U9iILfDS7OC3Ou/KVXpu91y8NRTTx2qb4BI8H/IIYcUxx9//MDvdM5vEgYpvY9+79WyLKne2JznzmVIbYXUIkibzHo466tzWrRP9jE92gIAjMe1VHduEchEJfhPPwAJaOvb6zWlg6G0L6wD3mgmCaJOAgzqHXg+PfbYY8UHH3xQJjFSBbGev2YA3++91ERI6UqWZdTb/Y3zHZYmJy4AgPG5lupOEgBgSjlxAQCMz7VUd80kwJLpE2DDhg0SAAAAANCHjgEBAACgJSQBAKZI+sVQfQ0AgPkiCQAAAMCSoEBlMEkAAAAAaAlJAAAAAGgJSQAAAABoiSWTBFi9enWxZcuWaggAAADopCYAAAAAtIQkAAAAAEvG008/Xdx6663VEJ0kAQCmiJMWAADzSRIAAAAAWkISAAAAAFpCEgAAAABaQhIAAObBXXfdVXz44YfV0Ey7st+H119/vXjssceqodF88cUXPec90+y1vADA9JAEAIAJSzD81VdfFQcffHA1ZqctW7YU+++/fzXUW6aRgHuUx6DgPkH8gw8+WJx44onVmNG89dZbxRFHHFENbU90bNu2rXz9wQcfFPvuu2/5GgCYXrt9Z/mx3+bFb9evKUcsVqtXry7WrVtXrFixohoDsPjk7gBvv/12sXbt2moMc5Vgev369cXpp59erFq1qho7PxIQ77fffmVAfvnll+94feaZZxbHHHNM+ZkMJxjfe++9y+HYc889i2uvvbYaGl0SC/fcc09x9dVX9z0PJmhPIL98+fJqzE4J7getn+Zy1bUC7rjjjh3v2W8BmAaup2b76Q3ryue/b92sJgAAS1MC8gceeKC49957xy75HtXWrVvLYDgBdQLlBOdRJwBSFT/BcwLnXJjkce6555bvjSPTSun/k08+Wdx+++09EwD5XBIAqZ1w2WWX7fjtPK655pryM0cffXT53EtdgyHLFUkmJLECACwukgAALEl/+9vfyhL2BLp77LFHNXZ+nXTSScWpp55afPbZZ+VwgvOUnEdqJDzxxBPFUUcdVSYDavnMhRdeWA0Nb+PGjWXCYdmyZeUyNmsWNCV4z+dOOeWU8nPvvPNO+d2omxxcfPHFXZsuNGU+Tz755GqoKB5//PHihRdeKL+fx/vvv7/jdf2ofwcAmB6SAAAsSSkVv+CCC3oGx/MliYAkH1LyXtcISEl8miRcddVV5Tw9++yzZU2F559/fsdnhpXAPU3gEswnqD/jjDOqd2bL9F9++eXyc3VthNQESJIiQfojjzxSXHfddQMTAJlOgvxagvvUAmjWaEgTg/p1/ci6AACmiyQAAEzYT37yk+LTTz8t29inun4SEamuXwfbKXm/8847i1dffXXkfgoyjdQmSDA/KMGRBEHn5xLAb9q0qUw+JDmR13nuJcmKlPj/8Ic/LIfz2WeeeaY47bTTymEAYHHRMeASklKdN998sxqa6aKLLpp1oZl11kvnukznGo8++mg1NFMuRlPi0zTKvKSq6po1vfe/DRs2VK+2m6blHGXai3k5WTg6spkfWa8xasA9rtQCOOecc8qAPb+dKvvNUvEE4gmkE5wPUxW/U/4fht1HErSnr4LNmzeXiYk0VzjyyCN3JAbqeUl7/yQGvv/978+Yn+uvv76swfDGG28Uhx12WLHPPvsU33zzzax5HmWeAGA+uZ6ardkxoCTAEpILubodaqdcuHWum/qiuJuVK1fOqJ6aAPbdd9+thmbqvLiNUeYlpUwpieql86J9mpZzlGkv5uVk4ThpzY/6+JjvJEDa+uf4eu6558rq8Qms0zQgt8/LNk1Ans4KMz7NAlK1Px0X5hhNyfqgkv3asAF3PhcnnHBCGfg3/weuvPLK4r777quGtv9HpbO/7H+Z3/pOAxmf72UddvvvqUkCADAtXE/NJgkAMKWctObHQiUBEtSnlDznombQXCf1kgg877zziu9+97s7AvIkBl588cWyyv35558/VBJu1CRAN2nj3+1WgbXO6dfLs/vuu5d9CXTqNb3UPJBYBGAhuZ6aTRIAYEo5ac2PhUoCRAL+Qw89tAz4EzRHqtCnSn5dDT/9BKRqfrO9fkrcc0eDYc5jcyl1T6IiQXySD/nt3CJwmBoIzaRGN2oCADAtXE/N1kwC6BgQACbopZdemnFLwpScJyGQ0vA62E5TgB//+MfFjTfeWDYfiNQMmO9Edn4rCYA68E9/BGmekMQAANAOkgAAMGHNkvV0oJfSiFpK4CMBf+4Y8PHHH5fD8ym/mVKR3Ou/WfKfeUtthCQG8n49bwDA0iUJAECrpTlZv7bzo0iJ+iGHHFIN7VSPy/v5rdw9IM0GEoz3u8//XCWoz+/kN9NBYapFNhMUkeGMT6egqZmQZECaJgAAS5MkAABLUqq+J8DP49FHHy0f9XBTbovZLXAfRzoF7Hb//FT/j5S833HHHcWFF15YdhSY2++NWgI/bNX9LH+C+vxOgvxByYY0V0jNhCQLbrnllh3NFEahJgEATD9JAACWpFS337BhQ9dHUwLkOkifq/xm8zZ8veQz6aSw7rDo7rvvLp97ya0H6wTG+vXrizPPPLN6p7fMS24BmN/pLP3vpa6ZkO+N0z/BJ598Ur0CAKaVuwMATBG92QIAzI3rqdmW5N0BUrIjAQAAAAC9aQ4AAAAALSEJAAAAwJLR7HeH2SQBAKaIkxYAAPNJEgAAAABaQhIAAAAAWkISAAAAAFpiSSQBch/IW2+9tRoCAAAAulETAAAAAFpCEmAJWuw1I1avXl1s2bKlGlpcrHvmKvtP9iMAAJgPkgAAAADQEpIAAAAA0BKSAAAAACwZOo7vTxIAAAAAWkISAAAAAFpCEgAAlojc3eP666+vhqbbtm3birvuuqsa2vWy3j788MNqqLvMb+ab+ZX1/MUXX1RDO+UONp2ef/75WdvkscceWxTbKfOZ6sr1I7LczWW/+OKLq1fb3wOYBEkAAJhCdXvGXo8EEAlaO28puffee1evptv9999fnHLKKdXQ9ttj9nvMpwSS+++/f/nc1Bl0ffXVV8V+++1XDQ0vQW3ntKdR5vP111+vhuZPr9/JOsp+fc455xR33333UEHvgQceWDzzzDPV0PZt9uabbw69nXL8ZH42btw4MAnUSz2NUX3wwQfF2rVry0ft888/Lx544IHydRIZRx55ZPk6y5XjYJh1ksSBZBXQjyQAAEyhVatW7QgQcuFfv64fF1xwQfm5t99+u3xeTBLknHrqqcUxxxxTjSlmLV/nY74k8HvhhReKa6+9tjj88MN3BGDxxBNPzEqy9JIgslcgmGCvDuYGufLKK3dZAJf5/O53v1sNzZ9PP/202Geffaqhnc4444wy0fLJJ58UJ5xwQvk8yIoVK2YExm+99VZx1llnVUOD5ThL0uHrr78unnrqqXL9j5qwOeyww8r5noSDDz64OOKII8r98l//9V+L733ve+X43//+98Ull1wydJJvnGQV0B6SAAwt1UxTFa/XI+9Pu5xUc5FWz3Oy6uNm/neFXIwmw595T9XVxbDOgblJgNPrwj8Bw2JSl2Ym2D7ppJOqsbtO/kMfeeSRHUmGzFPmLf+vCcQvu+yy4rPPPitLpwdJkJ/gtlN+45BDDhkqKKuD/10RwOW399xzz3n/7ewDCZh77bvnnXde8dJLL5UJgQT40awNkufOavSZXv06SZx8v/n+IJmX/F4SQffdd1/5ehRJaDQTEXORZXv11VfL/fLBBx8sNm3aVC7Dc889Vzz55JPl6yScesk1zfLly8vtmdoW49ZSAJY2SQCGlpPxhg0bZj3WrVtXXuDUJ+tplRNiLvSSYa/nPSUNGVdfeE2zXBjkYuCOO+4o5z0lArfddtuiSmIAo0vJZoLLZlDTLwiYZi+++GJx7rnn7kgAZFkmFTyNKsHRQw89VFxzzTUzkiyZtwSie+yxRzmcRMAwpbzNaeSckv/sJBPWrFlTvPLKK2UJcwLUfueblPyeeOKJ1dB2CeSynuoEcPMxyUTw1q1bi6OOOqoammmY/hKG1e93Eqzm/c6aHxmux+U5tWDqcZ2POqnTfMy3JE5Si6Ip+3W296jHanPZ0kQl5/wkZ+69994d45sJtOwDzf+GX/ziF+X/xW9+85vio48+Kg466KDiwgsvrD4NsN1u31l+7Ld58dv1a8oRi1FO5KkOuRB/9IvBQq+PXNhcffXVE0sC5MImiYVJJxWyXv7yl7+Umf6mnKSXLVtWVgmcq/la97mY+NnPflb8+te/nlFK02uZxjVf657h5SIuiapJ7I8sDQnA8p9SB5k57vOf1Qyk6/+cBAQpLVwM58MsRxx99NFl4DaMSS5Xgus0R8j669Trd5rrupsE/gkGE4SdffbZZe2AW265pbj99tvL6uZJ5Ga5M51uJeGd2zaSNPjb3/5WHHDAAUNVBc/5Is0Y/vjHP5bDSSokkdH53TqB8PHHH5dJjjSJ+PLLL8tH/OhHPyq/F0kArF+/vrj55pt3nIMS3D7++OPlstXTzueyfhK41p/r/J2sg2bAnIRAnYjJsmZ93XDDDV3XT85RSYJHva5rKYxIAJ3teuihh5bTa36+l3z+T3/6U5lsy7JnOlddddXItWyyTZOoyfeybnJtke3/4x//uOc5tbnvvf/++zOOg6yL9HWQbZB5zP7T3C966bYPQRvlWBAfzvTTG9aVz3/fullNAOYmJ7pkqhdL0Jh57ZST5bRLu8i99tprVjXNlStXlhcuwNKUtsk5zpsBXBJ/CQgXswSLCQaT7ErQlIu0zkdqDERz3CTV/RE0p918nWA6geawNRXyuXRIl1Lbukr5N998Uwa52X75/87y/vznPy8D6m5ywbrvvvtWQ9vleznHNveBfurA8uGHHy4fOe9lXOdypBZEEkYJzHMeTACczyVozveSyKgD+GyjJDXSmWMtQWamnbbqtQSxWcbmueoPf/jDjN9JcPvLX/6y/J08sr7q81i+d+mll5al3oMkAVBvrzzqhMCzzz47sC+B7H8J0hO05/PHH398+ZuZn9NPP72c3rDbvZaahVn+FIy88847ZSIkCfpB10f1/KcKf66psg3ySDIktSLyOvOY+a3fy6NXzYyl8P8AzD9JAOYkpQBnnnlmNTTd0nFPqmR2nthT+pH3pl2SAJ1ywZQLt1EvVoD5kwv0lECO82i23c1Ffv6fkgSog7FIsDNqKWU3mc8EQSllHGRSyxR1aXGWa9JGWaZBEnSnKnWmOcx/bIK0BJDNfgGSxDn55JOroe2SfEjw3Gse55JUTxCZYLsu+c8jpeN5/vOf/1x9arsEqdkOCdrT9CFBfb1f5fOpkfTuu++Ww5GkRjMxEFnX6Uwv2zS/nfc7azElEK5/J8FpSseb+286vku/C7Wsn/x+r/WTJEI9D/ndzmA48z3I7rvvXgbYN910UzlvWfb8ZmQ5MzxKgj3zlHb8kdoSWf/NRMiw8ruZn6zXJI/qbZRH5jW1FOrhXv8Bme+8l302JaGpSVQfi3nd3H5Ae0kCMLb6RNLs3Xma5cLq/PPPLy/ocnGRk3Yu2lLqMO01GdLpUC6uMs9N9TYYpgdlYGHkAr0u5Rz1UTftyQV8SotTLTkBWkptE2TlmO/VnnoUmU5KrZNE3Lx5czW2t0ksUyRgy3LNRxvlUZeprpZfP1Iduzmc/9sEZel/ZVBAWAesCSAT4Oe7eeR/u9v5JYFq2mt3yvzPRUqgk4jolFLqOkjtJtXhjzvuuGqot9QGSLX+WoLN9KyfUvScT9M0sJ8kRVLqPkjuHNG5fupgP7UREsRHnlP63pkIGCQBegLsXuf+1FhoJib6yW+n1D4FIjlOxgn+m3LsZ32mX4qok2j1vOZ/oJfsc3WNghtvvLEcl/+Q+ljMNNOXUH3tALSXJABje/nll2d1YDTtUgKRC+h//ud/Lq644oryZLsQt0Oaq1xUZF3feeedOxIBuehMNUtg6UmpZNpaJ8jK6wQX6fE8yYDOkuVxJKDIf2FqGA0T/E1KamOlvXfu7T5poy5TSqazXutHgqfmcB3MZbpJBtTyH9xZSp0guk5snHLKKWUHiGnPXTdpWCjNWghN/dZ3zoOpXdItoZ+aEE1JcuTR9JOf/GRH8NkrqI78TpIcOQ8PkvVd1yjI91KCnRoHkW1Tl4JnG6XUPH0m7ApZ7iS1sk+PUyCS7dVMQiWhcPfdd5eBe10zITU7aqnVkURPmql0k9oNWV/5TP4/sg6bNQYyj6ml4NoBkARgbMk0L5ZaAJGTazLjOemmg710gJeT6yR7PZ5POXHnAreu2peSrowL7f9g6amDgMjrBDt5bgZac/nvSjCVUtSF/B9PENMMSiZt1GXK+uu8J3xqCCSQijrgr2sNJFBLcN9ZSp0guk4a5LfrEv1eQXFKmdMWvpf83kJJwqJb7YG0La9L3PtJh3WpfZFza73eukltipzDmvt15PudyYamfP66667r2gFunYyZ9D48aPvUsi+khuG4+3R+o046JYmSZEbdxKKZHKhf55HzfmoHdTv2s1+mU8R8pnM919LnRDOxALSTJABjycknJ/1+Wf9pk5NqLkByIZGLtcx7TrwpcRimE6JdLSf0XEDnAjfV+nKS//zzz3e8ByxtOfY7S5YTpKXqNOPp1pQqVcHTfj7Jgfo2a+k3Jj3YJ1DLf29nu/dmp7M5PybI6lUqn/fTc3+3EvFMJ4F0AvBagsJhNeejqVmFvym/lYRDt/4ZMv9pijZIquenSUAkodBL+hA666yzqqGdkkAZ9Dt1gqVTAt4cF82AeNhq/L1knaSQY5gaC1lHw3yul85zd5IZSSjkOiXXJzm2s7/ViYJaZwl/LdcI+Xw/qcWZ5iFAu0kCMJb33nuvDKgXk1RD7VaNNuPqXoUXm1zApqMgYGlLe+sc652J1wRHzarqjCZNLH7wgx9UQ9tlfaZDxlR7TzCWgCvrvV+ytS4FT1vrunp4tldn2+sMJ5j7x3/8x66BbYL49LbfbDef+Um78M6S3/r3mg4//PBy3julP4BugV9K5zP9znlJDYgkMnoF37WUxKekOk0C0h/Ao48+Wn63U4LqrI/O6WUZ8v1xS9KzTS6//PLyLgy1XsmXYaU6frd10su4ffJkew6qbZCaBnNJMjTVCZ80Gejc54H2kQRgLDl59SpxmFaZ3+aFQi3jFtuy1HIB260aJ7B0JAEQKeVjchJA57+/W3Cf/9UETcNKlfCf/exnxT333LPjHvfZXkkeZDoJlhPIr1mzpuw7oLNdfS2B8nPPPTcjsZPO3NKDfmqs1b2855Hfy633mvK9BJbZZ/K7edS3OewM/DIun6tL53NerwP4BJ+Dzi35/oMPPlje8jDrMMuaGgHN2wjWUgsg98uP5u888cQTM5Z1HAnWm8mxJFk6k2XDyPJkG+W57pRvkHQGmG2eJEe35Ef2sTy6vZfkQbZrL523B800hmmi0JTfzrxlO6efgdSSyPrpl9AC2kESgLEk074Y7q/flIu0X/3qVzM6dMrrjMsdAqZdTuKdF3bZDjL6sDTVQUkMquLL6FIFvRnsZX3XEqSPEiglkE0zrfvuu29WqXaaFiRYTsIh/dH0SgBEgtfOkt/MR2ojpDf7upf3+tGsIl6rxyVJkEdK9LsFfglCmyXeaY+eXu6TYMi55bTTTivH95Kq/1mmZnv81AhIyX7zPJugv1mLpfN3hg24u2lus7lIoFz3GTRKkJxlTw2I1157bccyNR9JECRR063jwnzn6KOProZ2qs/vWW/NZicpwR/m9oeRadS/n9/JPpn9J/8jEgBA7Pad5cd+mxe/Xb+mHLEYpXrT22+/3fVk2EYLsT7SRjHZ/0l3xhM5caXTvnEy+YPkwiQlD3X1/1yY5AJkUssxn+s+FwTp1yDNGiJ3C0iJ0rBVFocxn+ue4aTjp1zodbY5pn2S9EuydZh9IUFD/tcSxCThOdfS1fmWEsr8H3er3ZDlznLkkQTtfJxnmvK/vWnTpjKg7db5XFOOT9caC6/eRmmGWO8z2RZ1Hxm5a0ZqLtQJluxDCZpTkj7M8ZNp5XogSYyFCpLrfSnn9vRrEGnakLsApXZGfQzX1xUJ7NNB4iTP+bCULUQ8tNj89IZ15fPft25eGkkAZlrsO/1iDkSte+ZKEgAAYG4kAWZrJgE0BwAAAICWUBMAAACAJUNNgNnUBAAAAIAWkgQAAACAlpAEAAAAYMlIB8uaAvQmCQAAAAAtsSSSALmlVjp/AAAAAHpTEwBgikhqAgDMjeup/iQBAAAAoCUkAQAAAKAlJAEAAACgJSQBAAAAoCUkAQAAAKAlJAEAAACgJSQBAABgF7jrrruKL774ohoCWBiSAADADtu2bSsuvvjiXRKYrF69unq1NOQ+1fXjscceK8dl/da2bNlSBoG1UdZ5vvf6669XQ5OX+XzggQeqISYt9y/P9vvxj39cPPHEE9XY0WT/uf7666shgOFJAgAAO/zmN78pjjzyyOLFF1+sxiyco446qnpVFB9++OGMILrbY+PGjdWnB0tiI9McVQK1BGydEiA///zz1VBva9euLR8ffPBBObx169Yd0/v888+LI444onydgG6UoPt73/tesfvuu1dDOyWRUCccBrnyyitnJCVqmY/M5+GHH75giYBxkxpZb9kX+sly5nPDyLTmM7lSO+2008rg/4ADDii3WZ0AyrZr7uP1o9c23XvvvatXg2U6w+yz/STpUM9r9p1McxiT3k7A3EgCAMAc5aI4wVJKsvNIQNMtuFpo9cX6sBIgJKi49tpri7/85S8jBdmd8tu5oM80EvRmnSQISDDeLaju9M0335QBch1En3vuubOGP/vss+rTg3355ZfFwQcfXA0N76OPPqpezbRs2bLiq6++qoaGd9JJJ+2Y70z7wAMPLF8/+eSTxWWXXVa+7ibrrvl44YUXioceemjHcL2tsh8edNBB5et+sn2yTvbbb79qzE7nnXde8dJLL5UBaoy6H43jrbfeKg499NBqaDSD5m///fevXg2nW3JlWAlk+81P9v/8N+Q4O+uss8rlzvFWB/MXXHDBjn28+aiTSHNx6qmnzjhmMh855ofdvtnHso3qea33nWED90lvJ2B8kgAAMEcJwuLhhx8uNmzYUAart9xyy5yDp37fTyBdJx16PX72s58NXfqdC/xXX311RyCa52eeeWZgIiABQF1aXgf6CYTuvvvu4t133y2DjgSsCRzOPPPM4t577y1WrVpVfXt+9ErAZH1mfvPI/A6TjMj8H3bYYdXQTnvuuWf1ajRZP59++mn5/Nxzz5XBf0pXMy7rLOO7bbPOoPD0008vLrnkkh3DSS5kebKe83qQlPT3+lymkWA1AWL2gzroi/zGpGsHZHkTUDZ/Z1hJFjVrkOxK9fHabzmWL1++I3jO+h9mW01C5m2PPfYoXnnllXL7ZZ9LrZ+MG0a+n/+DJC6aLr/88jIZNcg0bSdAEgAA5iQBcEqEm8HSGWecUZZq/fnPfy6HawnwugXrvR4J4ntVA04gnYRDr8dFF11UnHjiiUOVfiewS8nvNddcU43ZHsgkuMyFf79gOQHAn/70p/J12jdnGvfdd1/53ZRIv/3228UNN9xQrp9jjjlmVoDUrPb//vvvl8/1Mid5UL+X3+kc7iUJmM51GQmyE3S//PLL5fDRRx9dPveT4HyfffaphnZKCf4oNRFqddCe9ZRmF3mddVKvszzGqbGQZE3mp07iDJJESKr7d0qwlwAxpeG9ppVaEJP0xhtvlMdLkg4JUOvq+FmmbOt+iajUphhmfj7++OMd06+D9V7qGhCReUlSK/vQoKTRJ598MlSgWyfOsp/PZ42hTD/JnKzD7PtZV0leZbvfcccdZQ2EJCH6JS1qv//974uVK1fOqjmS4SSkBiWG5mM7AePb7TvLj/02L367fk05YjHKn1tKXea7ZAFgvvk/W3wSGKTqfC6omxK4vPbaazPG56J2mAvuSHC8fv36MoAeNShMYJFA+Oabb5510d6Uz91///3FIYccUlZD7iXBRKojJ6AYdl6y/Ekg1EHuMLL/5/ORQCk1CepjYdDwIM1pjyIBcQKmTvn9JBT6TTPrKyW/teZn68A2QVjWb9qI99tWnbLfpYbCihUryqAp+0uvoD37XQLUyDqLfD/NAWrnnHPOjn0gAWraq3fbdnUg3G+9Z7+68847i6uuuqrr/pJl/+Uvf1kNFcVee+1VLnuCzCSOmlXO63nJcEqdO9dRgsWTTz65XA+1OunTlH08AXqmn+RL53Jl/b333ntl6Xi2SdZlpp0kUH43JeZJyiXB1ku2QxKC9brJerjiiivK102ZjwTj+a//wQ9+MGNesq0SsHfTua8Nsw92yrp/5513duwrmcc0SUjispd8J0nCfr+TdZXkQq+aDZPaTjAs11Oz/fSGdeXz37dulgQAmCb+zxafBEXdSmBzgZ7S6m4B5CAJBG688cbi0ksvLUvPR5X96IQTTuh5YZ/pp+O/lKwP+xtZnnvuuae8QO+8mO9UB4Hdgsh+moF6Z5A/aHiQ5rRHkUAlgV+2c/O38vuDArDmb+Z1Apy6bXdqPdQJgmyPBI/NNtH5XgLTRx55pBozU4LTuklCptmtBLqZtElpdn4/HQrme9n21113XRlU1/tbM2lU18boTA51Brq91Ems22+/ve8+kN/Ouhl0nGT9Z7479+l8d1ByKp9JHxLd9tnmfn3ccccVzz77bNlsZfPmzeX7zeO6uT27yTzWiZleBk0j85OaKr0SOk3D7INNWddJBtXLmyYh2eeOP/74nsH7sMm8ejsmkdNt35jrdoJRZX9yPTWTJMASlfXw5ptvVkMzpVpo5/rploGtrVu3bsafcE5sjz76aDU0U04knSegUeYlJ7E1a3rvf51Z92lazlGmvZiXk4Xj/2zxyUXy448/XlbnbqqPs34lh93UF9Npe9vrwryfutS+33GceYuUPqeH+l6BZlM9vSxvqvb2qzkwqFSwlyx3/Tt1cFYHxlkvzUA5w70CjrzXGbBk2inR/dvf/la2T84ypDnAoJoN+W/Nf2hnwmGYAKy5PM3XCaRTstxcP9kmKf0cJiGT5UsAl2XIOhilBkHk96MZUGf+mgFYfiMl+enDobkus9zDBqn5nfQz0W8d9UoqdM5PL8312sugaTX3l3w2yZLMU+cy9qoVUst3hwl0B62Pzn2jl2H2wfTTkYRRZBnrZYtB2zD75KZNm8rp90sA1LIeU2sjz5l28zuT2E4wiuxPrqdmkgRYonJh1qt9YrfMdH0R2E3nRUVONHUVwk5p49V5shplXlJilJNML53bdZqWc5RpL+blZOH4P1t8csGbUtQk0NKreqQvgAQ/SeT1SgLkYj/t5ZsXy5lW9oFxEwD530g161//+tcjB4ZNmYdBF+z9pNR5UAlwN/1+t/7fGubYSCn0L37xi2popwRAmackEhKodVbF7iZJgPSt0BnUDBOANZenfl2X7tev0x6+XqZ8pl8QmfNIanCkQ8FmM4OmLGO/BE1k+3Q2FclvdwZg3apwD7PcTfmtq6++etY5q9ZrX8k5bVCpeuT7nQm4Tt2WrZssW5L1vZLh2Rf6JfWa27uXQZ+pg/Zu+2XnvjHqtmhKQqOuCdJN1v/XX39d7kv5X0lzgEHq+ch/W65fmvvhJLcTDCP7k+upmSQBAKaU/7PFKcFZ2hKn5+20b872SwAzqDlALrSTHMzFeEqnU+o6bgIgF96Zh/x2pnvTTTeNfTE9KFAZZFCw1Ev9uwluOuc944ZNAnQz7jIlWEob9c5S0zpR22t+sk/ku81gPdXMU908nQImyOtcpiSB0h48t3Kr94EkCtJWPb+VWgIJUnut22GCwl6fyfoZJgDLcqWpx7DNXLKemm3Qm7LPZvm6vTdsEmCYfW3YZcv2Si2a3OWjWxA+6LcSpA+qVZN56da3QdRJwG7rNuMnmQRoJqNGlXnp/N6gWhKT3E4wjOxPrqdmaiYB3B0AAOYoF/TpADAXubmwzkVHernuFkg05XMJ+nMBnfbTueXbOAmAlNjWPednmnm+7bbbygBskHwmn28+6l76m49hplVLImQcKQHNb6W6eed8dd4dII+63fp8SgKgW8l83dN6L2l28MMf/rAMluqA6a9//WsZyNW3AuxcpvTAngRBpp2AMJ3ipaZAOkhLqeokgqOs2yQZOuX3mr3i95J9PYmAfL6W+UxQ2U3WX5oudMr3f/e738265VxTmqoMkpoPkXloztOosi9lXqPXcdvss6GbuqPFJDf6yb7RS12bqJteNUT6ybbK/0P2uwTi9SP/U1lfeW8USTx0Ww91Xxe9TGo7AZMhCQAA8yBBUX3h20+C/pSEJoDIbdlGkd9IAiEX1Qk06yAhz6lVkA69Bl3k5/frQLV+pPS6c9woyYkErcMmDRKkJADLcuRWYyklzfronK8kSPJ+c9ygau+d8lujyrx062AxtT6ynP103oM908m2qec/QWeq5ed1SkDz+QSgWa48p+Q/SZ3OUuM6adD56HfbxMjyp4lKt22Z9wYlrWr5fnqUr6V2Q2qydJN571ZCnP0y27NetgSX2QcSoCZgTXIkNQgGyTxn3tMWvZcktfolUPLb2Z79AvAYlARIM4LMSzMhkhoNdQCe58xLan90C4Trbd5Nrz6C+slv5C4h6Z8j/wdJUtaP7G9Z/0nQjHJcJIjvdmvJQYm/SWwnYHIkAQBgwnLxnSA4bcmHkaAqwWZqAwxTSpbPJLhI8JgL+dRC6AzgMpz3c5E/amnfXOV2c+kssVfpcKf0RZJ57RbwjiO/m7bVzZLPBBhpTz9KwNNLtm0Cwn7zmpog/WoKZBtm24yzvFlX3R5JlPSTpNDZZ59dDe2UwG5QQqMppffZvvV+HqMEb9kGzc4AM510Apn5T4CagDUBdaadxECC9F6SaMt2zec7j4HId/ut4/q3cyvObt/vpT4GO6VJTl27Ib+d24fWAXiSIZmX9AWSTheHTZTlt7J8o8qdALKf5v+lc9myvZKUqudpGNluvZJIvfqoqM11OwGTJQkAAHOUTq/qKsC5UE517wRVo1TfzYV1kga5UO4nAUGmnzbiCS66lVLX6kRAqtlPIvgdVpY7ncHlt5OASJDZ6/dz4Z9lGCUAGyTr5ZRTTtlR6ll3lJgqywkqM0/jro8kGBIAp8ZCP/ncgQceWA3NlnloBu2p+t4vaTBXWd4EnekMMRJ0ZV/KI6WzuU3csLIuzz///DKQTWIhTRhGke9n36glWM2+XycSsi8kMZQkQUrn07SlVxX73FHhqaee6plwS5v5fiX8qdGQRNowx2oSSVlfWZepedG5vRLo5ljrFcymGUC+m/WV4Dud7fVLcNSSLBqmVlGnrM/Mb5IVw/xOP5lO+oLINu+UaQ/ad+e6nYDJ0jEgwBTxf7Y4JchNIJUgM9Vi0xb8Jz/5yUQD20nLvtZLgp1+JXvNAK6fBA4Jsl577bXyOfv1MPt2t3nLtJq3CGzqnJ/OHukTpCSQTOCVKvdJtCQwqpsdDCvTqUuNBwWNnb2hZ5kynwkC77///hmd/0WSAnVzgX5Sq6FXqXDWUZ346ZQEQLMjwyx/HmmGkpobozatmKSsk1Rbr+9YUA/X2zAJlSR2ujUryDLn7hzdep6va8BkOw8r6zeJo27SbCWBbPbB1KjoTMDlf+BPf/pTWTOnlu/kbg5Zz/nepZdeOtRtIJtSqyVJrc7vZX8c1DFg1k/zbiVNw95FJOs/fQh07rO17EdJAvRLSE56O8EgrqdmW3J3BwBYKpy0YO7qoLHurCzBV0qumwFMv8CymwRcaXOfktBBgXqmnTbmCawTfKe0PLdqTWlo2s83e0BPgFfft32Y5Eq/IHWYoHBaZT2lhkVK0rttr1HVnUaOmtzot34XUuY/+1Ck9Lzbcsz39k4yJvtutkn6M2ju93VyI0nPbK/6jhejGnc7wSCup2aTBAAAAPpKQmuYphLA9HOLQAAAoC8JAFiaJAEAAACgJSQBAAAAoCUkAQAAAKAlJAEAAACgJZZEEiD3J81tIAAAAIDe1AQAmCJJaCaxCQAA80ESAAAAAFpCEgAAAIAlQ83K/iQBlqDF2EfCUunXYbEvx+rVq4stW7ZUQwAAwFIjCQAAAAAtIQkAAAAALSEJAAAAAC0hCQAAAAAtIQkAAAAALSEJAAAAAC0hCQAAAAAtIQkAAAAALSEJwNi2bdtWrF69urj11lurMdPpscceK+ez8zHt893NF198UTzwwAMzluHDDz+s3gUAAOhPEoCxPfPMM8U555xTDU2vDz74oFi3bl2xYcOGGY+1a9dWn1g86sTFww8/XC7DCSecUDz11FPlOAAAgEEkARjLli1bijfffLM45phjqjHMt40bNxZ77713cdlll5XPccYZZxTXXntt+RoAAGAQSQDG8uSTTxaXXnppNcRCeOmll4pTTz21GgIAABidJAAjSy2AUAtgYaXmxQEHHFANAQAAjE4SgJGlFsC5555bDS0OH3/8cXHllVeWnenl+emnn67eWVz23XffsqPDiy++uFyWdBKYzgIBAACGIQnASOpaACtWrCifF4NPP/207EH/5ptvLjvTu/rqq4tNmzYtqkRAvd6feOKJ4qCDDioeeeSRsnPALNvdd99dvgcAADCIJAAjWYy1AO67776yM7399tuvHE4C47zzzluUtQFOPvnk4qSTTipfp3PAa665pmwm4DaBAADAMCQBGNrrr79ePi+mWgC9pD+DL7/8sti2bVs1ZrrV67xz3ScRcMghhxTffPNNNQYAAKA3SQCG9uyzz5alzmmLXj/WrFmzY9xiKlmv29Hvscce5fNisNdee3VNWnz11VfVKwAAgP4kARja2rVryzb1zce6deuKo446qny9atWq6pPTI8H+9ddfP6vzvLfeeqvYf//9d9xvfzFIM4D0ZdCUpED6Bdhnn32qMQAAAL0tiSRAgs8EqNApQX4et956645S9HSyl171L7300nJ4sTjrrLOKF154odi4cWM5nOW58847i3POOWdHfwcAAAD9qAnAkpfO8w499NCyRkCaLTz00EPFz3/+87JfgMUkgf4NN9xQPPPMM+VyZHlWrlxZXHDBBdUnWAqS0JzGWjUAACwNkgDMSTqqm/ZaGKkJkLsD5LZ6abZwxx13LLoEQO3ggw8u5z/LkeURLAIAAKOQBAAAAGDJULOyv92+s/zYb/Pit+vXlCMAAACApeOnN6wrn/++dbOaAAAAANAWSyIJkE7S0uM7AAAA0JuaAAAAANASkgAAAADQEpIAAAAA0BKSAAAAANASkgAAU0ZnpwAAzBdJAAAAAGgJSQAAAACWFDUre5MEAAAAgJaQBAAAAICWkAQAAACAlpAEAAAAgJaQBAAAAICWkAQAAACAlpAEAIApl9scTcL1119fbNu2rRrq7/XXXy8fvTz22GN93wcAppMkAABMyIcffljceuutMx4JlqfF3nvvXey3337VUH+HHnpo8cQTTxQbN26sxsy0xx57FLvvvns1BAAsFpIAACxZdVCekvQ87rrrruKLL76o3p28gw8+uFi7du2Mx1NPPVW9u7gkYZD5f+aZZ4otW7ZUYwGAxW637yw/9tu8+O36NeWIxSgXduvWrStWrFhRjQFYvPynTUaqvaf6+4UXXlicccYZZfCfku2tW7cWd9xxR/Wp+ZftuWHDhmpoPFdeeWVx3333VUP9JenRy/vvv18sX768GprtkEMOKS644IJqaLustyQEOj399NPFYYcdZj8FYCq5nprppzesK5//vnWzJMBSkgu/N998sxqa6aKLLipWrVpVDW2X9dZL5/rMxd6jjz5aDc101FFHlaVFTaPMS0qY1qzpvf91XjxP03KOMu3FvJwsLP9pk/HAAw+Uz5dddln5XLv44ouLm266aUHWb33c//KXvyxrCQzSK4DvF7xneQZNO/Px5JNPzunYTrOGDz74oBoqik8//bTYc889ZyUIhpkfAJhvrqdmkgRYotJu87PPPquGZupWWpNAsJeVK1fOaDeaC8h33323Gppp2bJlxUknnVQNbTfKvKS0btOmTdXQbJ3B7jQt5yjTXszLycLynzYZCajPPffcWesxtQMuueSSBVm/OY5fe+214vjjjx/7uEpJ/N133901gM9xP0xpfH3Md/7P9PL888+Xz6lB0cuwvw0Au4LrqZkkAQCmmP+0+ZNk3BVXXFH8+te/HrqDvLlIbYTjjjuu2Lx586waCcPqV4o/bCCeXvw/+uijoZMAkZL/lPZnvjUHAGCxcT01UzMJoGNAAFrj/vvvL370ox8tSAIg0qTnmGOOKfshGNfnn39eHHHEEdXQTF9//XX1qr8kAF544YWydkS3RzpQ7JS+AVKDIb8PACwdkgAAtEJK5VO1/rzzzqvGzK+UvqePjUiTnDQNGEcC+IMOOqgamqnZRr+fv/zlL8XVV19d1ibofPSTJgxp359aAZ2JgyQVHnrooVnj8+iWVAAApoMkAABLXp0ASNDbrWr7fHj22WeLs846q3ydJMDjjz9evh7VK6+8Ut6zfy6SLOhXHXJQR36pFdBMHJxwwgnF2WefXd5loTm+fugYEACm15JIAqRXdW09AOimvkvAtddeu2AJgJT677///juaHeQ5tQLqDveGVdcm6Dffw/QHUNdI6Cbt/ntJHwqpBdAptQCOPPLIamh7vwUAwOKgJgAAS1Y6r0sNgHE75RtHfi+l/p3NDjL8u9/9buiq8pnOgw8+uKM2QTf9AvhaaiScfPLJ1dBsX375ZfVqtrfeemtWU4QkBpKUaPar8PLLL4/d3AEAWFiSAAAsSSmdTon1QicA0ib+0ksvnVV6n+GMv/fee8vPDfLEE0+UVe7n0olhkiC5l3+v2gKZj+XLl1dDs3WW+EdudXrqqadWQ9tlHT/zzDP6AgCARUASAIAlKbfVO//88wc2AcgthBK4z1WdAEjJfe4I0E3G5/18rlciIOPvuuuu8nW/+/Qn4E6Tg17S9CABe78kyCeffNJzGkmipC+CzvVXJwbyfpoaJNFQN7l45JFHymcAYHpJAgCwJOX2fL/85S/LIL/zkcC1lvbyhxxySDU0ngTEN954Yxngp0f9fvJ+PpfPd5ac19PJLQEH1WB44403yg76OtVJhFdffbXspK9fEiRB/OGHH14NzZQkSp2EyPpK4uLiiy8ukwYJ+t99993ir3/9a3HYYYeVy5NOAjPfzXULAEyf3b6z/Nhv8+K369eUIwCA4SWQX79+fXHDDTeM1Ct+Av7cYi/BcyQgT/v9BNrdppPg/qqrripf100EOoP8ujbC6aef3rMWQRIEueNAEh/57jXXXDMrUZB2//fff385/Xp42GYJSQKsWrWqGgKAXSNJ/3Xr1ulAvvLTG9aVz3/fulkSAAAAgKVFEmCmZhJAcwAAAACWFLeR721JJAHqtooAAABAb2oCAAAAQEtIAgAAAEBLSAIATBlNnAAAmC+SAAAAANASkgBL0GIsRVws85z7eud2I4vdUlkOAABgNJIAAAAALDmaWHYnCQAAAAAtIQkAAAAALSEJAAAAAC0hCQAAAAAtIQkAABOQzoeef/75aoi52rZtW/mcu5k89thj5euox8cDDzxQfPjhh9XQ8DKN66+/vhpaGrL/5QEAg0gCAMCEHHjggdUr5uKLL74ofvOb35TPsccee5TPCXK3bt1avo68Pvjgg6uh4e23337F3nvvXQ2N78orrxwrCZGkRnqrbj7Gmc6kTHvv2dkPxl1HF198cZlI6qZOBtX7WT933XWXJAuwZEgCAMAEvP3228U+++xTDS1twwRNc5EA/Zxzzik+//zzaszOGgAnnXRS+Zzho446qnzdS7dgu368//77XcfnsXHjxmoKveUz+++/f/HNN9+UNUDyW8N8Ly644IJi7dq1Ox5HHHFE8cYbb1Tv7hp77rln9Woysn0SfGfd1EmGPFavXt0zKO+mTgBkXe+7777V2OHU++mKFSvK56bUIkkS6ayzzipfD/LjH/+4PMYBloLdvrP82G/z4rfr15QjFqOcXPLHnBMpC7M+cqGTk+ZNN93U9eQ6qvmY55z8n3jiieKPf/xjOXzIIYcUV1111VilRrVcuKxZs6bYsGFDNWayXn/99XKeP/jgg2KvvfYqL3bPO++8iZRYNc33cjA3/tOmXwKZBCV51BJULl++vBqa7dNPPy0f/Y67/Le+9tprxVtvvVV8+eWX5bj8dyXYPe2008oS7EnI/2Ov/5UEXG+++WY11F3+nx555JFqqL9xlinzUMu8fvXVVzPWdY6NHCebNm2atRyZdoLsyHTOPffckc5T+X989913i1WrVlVjtuu2XuokRIL4gw46qPjud7871jbKskTnb44i01i2bNmOJMkoxv39bJtPPvmkTNZ89tln5f9WHXhne33ve98rvv766+KVV14pTjzxxOKYY44ZaVtkWlnvK1euHGvdZFv+4Q9/KK699tpyuLnf19O+5JJLynNv5m/Q9UFqftx88807tnFqJrz33nvFGWecUQ53yvRPPfXUsbYJMBmuqXb66Q3ryue/b90sCbAUzef6yAn1ySefLE/uuZgd9eKql/mY51TxO/TQQ3cE0SmNSPXSO+64Y+wL6fkMnjsTKylFufPOO8t5n/S2lASYbv7TFp8cr/fff//Y2ywByd13312+PvPMM8vnZ599tpxepp1g94UXXijOP//8rgFFkhKj+qd/+qcyKBtVApsTTjihZ+BTm+syRR2o5X+wM5jK+Ob67hyOjJtUEqApQePmzZuLyy67rBozN5nPlMTXwWo/OVe89NJL1dBOOSdnGp1JkWgmRrrJf06MkwRIcj3bJQF0msM013Wm+5e//KVcT93mq59626ekfpwgOgF6zvtZL7lmSQLn7LPPnrHfZj985plnhtqOmZ8k6fMcSWodeeSRxfHHH99z/sbZ/4DJck21UzMJoDkAI/n444/Li79JXfjMl1wkpeSoeeGRE39O2LnwnEYpKcv81hcLSVRcd9115YXLrmwrCgyWgCD/jeOog518PxcpdWBel3znvyDB2Q033NCzI7yHH364TOoN8/jFL35RBoVJko4qwW/md5gEwFyXqQ66kshNSXvksxmf4C41L5oS7PWS6Wd++j3S5jvTHiSfefDBB8v52hUScGaddj5Skp1S7W7vpXbZfMj5NTVCcu7KPtEMdrOtUjsgiY2FSgAkGVY/7r333vJaIPv64YcfXtx+++2z9tvsh72uZ+qmJCn9z/TqhFaO9VNOOaVc7izbOAmKphxT+Z1h9j2ASZEEYCQ5gQ66+JsGufA4/fTTq6Gd6gvQadTtYmLcGgvAwkopw/e///1qaDQJdFPdufnf+tFHH82qmpzhBCwJgDsNG2QlGE5wlgTjOIHZr371q7Lkd5C5LlM9nwkCd99993Jc/h+PO+64snp5ahAkiZBS+8i8dft/TwCcwDS/0xkY14/LL7+8LEFP1fXI5/uViGe+8ls33nhjGRx2BnB5nc8kuBtGSqPrEvy8Htd8BfrjqJNFvQLsfvK9cRIA0Ux2Zdum2UpqQGQ6o+7vdb8N9913347pZXmyb2RfHsYw/SwkQZZaLnWSAWAhSAKwJOUk3e0iLu0S02ZyscgFbi42Oy+cgemRwC0B2DjHab6b2j6d/1e9kgqpzZTSzXEksF6/fn0ZYI2TYMz3Mp+DlnOuy5TvJymQgCvzmY73jj766PK9BEwpiU2Jd8bVgXY6eKtrCwwr/6+pJvriiy8WF154YTm/gwLFBPf5/fxWSpYTHKak+c9//nMZvGZ6SZLkdZIVw6inl9LqvB5XakJ0q3aeeRnGJM+NqSmRdTqOcRMAnbIuUzuiKbU96pL9+pFtOor0Y5EahcMkbJJYanZu2UuWNQmDulkGwHyTBKA1cnLNSTYXnItBLlBzgZtOiIDplYAgHd4leOn36Ba8dwtUErSlqnu3YDtBat25Xi/dbmVWJwBS/X6cZEUCpTSx6pZc7TTXZaqraNcBeWoVNHuFT+2CunS/Lv1O+/w6UTCse+65p6ytkBLfYZIiWadJNqRfmWbCIPOS/mayjSPvj1JNPLUacl7KI6/HkfXbq9Q5HfcNknb7o/a830uC48zLXGqypTbfXKWJXed+mB7+6+RN/UjCYRTZ7kn0pM+eYQy7LEmaZB8bNmkDMBeSALRCLr5zcs2Ju75wm1a5kEzpxG233VZedAPTKxfsCdzS/riuXp5HNIfz6BYU5hjvLL1NED2XUtAE0AnqErhn/pJMHDcBkO9nOgl+0xN+OlwdVAI6iWWqEyf176WqdD0ujyQ1IiXoWb7MX7dla36n85HEQzpz7PZeHvVvRF4n2ZPtWAe3WTdpN55S74yrkwOjBL9J9qZvhnwn56a8HqemR9bvoNsl9jPJc83f/va3OZ1ns44TOGcbjBsQ53vdaudkv+yct37bK/te9v9m7YG8fuqpp8rpDKpFkNoVw9YIyXzkGMm2BJhvkgAsebmgSu+/uaAY9QJ4V8gFUEon6gugW265ZewLIWB+/f73vy/7H5lkcjE9v5988snV0EwJeFP9vJ/MS93LfNqtpyQ9NYrGSQDU/0P5X0pyIaWmCcybAfIwRl2m/N4111xTLks6YMtw2k3nkdf1sqRqdoLwlOh3k8/2euR2jt3G14/m+srrBPn1ds7yJzGR5glXX3312Ns/tRGaJdF5/fjjj4/8n59zXNZFL6M2lZiLug+HcWVdZl/Lts7+O+q+Fmme0VkLYFRJAOT8m22f46euOZCaBOkYME31cn3RL2lzwAEHzLqtZJq69Nq+aRIybH8DAHMhCcCSVicAOi/oFoPMb30hr2QApk9Kcbu1fR9FSgoznVr9urMkPRI4JKAftvpyAqm6dHiPPfYon4eVwDw1pxJc53+oDnJTUpnEQP5TewU/k1qmtNVvdvaX//LO5lwpZU2J/jAdsE1K5jk1P5Kk6LZMw0rttCSQmiXReZ1xWSfDSlBZ1yboZpg26cNIqfegWiCRc1eafgzz2X6yr6X2Smqx9Au0u/nd737XNykyjJx3k0hI85Pmus2xkORPjq/sB/1quGRdpJZFvS6y72Teesm0+t3KEWBSJAFYsnLhmRKVXKyOW0ozDXIRPIn2kcDkpHQypbjD9JTfT4LadFia6eWRZkC5r3inBA8JvvNf1i/o6JRAJQHioGrLtQQr6VMgpes33XRT1wRHApvMS6bZLTibxDJlPtKRYEpG85nMU2eNi3w/7bLzfppkjBoojitt7JMcqecliYCcZ0aReU3zgm7rN+PSvGGY5cn6zbL3u11hzh+DOv1LEiW3AO4m2yLrOOt72GRS9rtsm3xnLrKvJRGQBNCw2zcJrJw3m4F7rgeGPQZqWdZ+t52MYa4tzj///LLPiEhyZ9I1hwDGsSSSADlhjnoCZmnLhUcuPHPxsBhOtpnftDPsVnKSi5BJ9toMzE0Cr7l0steU/6cECTmHZZo///nPZ5QuJ3hJu/MkGxLYpPR5VAnI8j/SLJ3vJv8/qf6cHs1zW7R+pdx1IiDV/DtNYpkSwOX7SQ6kqUBKU5MUyLqP/Gfm91ODIPOSz44SKM7FPvvsU5biJ9jsDHIzf1m+fsFv5rGuodbLMMuT38/6HdTXzTCd/h1//PFlMqF5DqoD5zT/OOGEE2bUCBkk2y3BbuYt23rQOumnuX2HCeSfffbZ4swzz6yGtsv+l1o73ari9zousgxZ3uxn2Q6d5+d6Xxwk08l+nv4EYi41hwAmZbfvLD/227z47fo15QgWv1yc5GKp3wXGJOTEmNKdfheKw5r0PGd6Kf3Ixe8k5WJhzZo1ZbvAScuFUi5SctGUi55cqKTUoO6NepLmczmYu4U6hhlPjs1Usc5xmkAgbdY7pTp02px3M+x2TdCRACxBRNrTT+K/dlcbZZnqYDnBZKpkZ12nFD4ltKmpcOmll5bVsmvZLnViINMfJInXJDvGkf/QP/zhD2WV8eadDXJf+mz3iy++uNw/mjJ/6UMi//PZBwYF1PXypElHs4p4czrXXXddz2YAkc+mXf0wy5lz0HPPPVcuT70cCf5/8IMfDB38d8r2zjp69dVXy/ldt27d2PtxliX9MFx++eU9lzm/lxoI3c6ZeS/7U+ajWcKfJFO/c2ySLX/605/Kjgab38t28R8N08811U4/vWFd+fz3rZslAZai+dzZM+1HH320GtpprifDSc9zLpxyou9mLvM638Fz1kNKY3KhkYuwXMimmue4F2C9SAJMNycs2i7V/1MjIe26m/9/KclNQNkrEKwD5F7tqhPQ1e3tUzpb97uyELJM+c1R2nxneTK/aRaR80GGUxqeddOrRLk+Tye4TeCbZPgwSRGApcg11U6SAEvcYtzZF8s8L5XgWRIAAIClThJgp2YSQMeAAAAA0BJqAgAAALDkqAmwk5oAAAAALGnuItedJAAAAAC0hCQAAAAAtMSSSAKkrUduCQcAAAD0piYAwBRJQjOJTQAAmA+SAAAAANASkgAAAADQEpIAAAAALDmaWXYnCQAAAAAtIQkAAAAALSEJAAAAAC0hCQAAAAAtIQkAAAAALSEJAAAttHHjxvIBDGfLli1lT+PD+uKLL8rv9PLhhx+OND2ASdntO8uP/TYvfrt+TTliMcptH95+++1i7dq11RiAxSkXhEcccUSxatWqagxLTYKCJ598ct7PWb1+J4HJ3XffXVx88cXF888/Xxx++OHFSSedVL27U7fgxHl2+/rbe++9dwR37777bvH1118XH3zwQfle1lHeb5PHHnusXP6mQw45pDjxxBOLRx55pBozW/bBgw8+uBqarCS4XnrppWpou1NPPbXrvj6sUY/d+ljr95+e42zY6WWZPvvss2qoKK99P/300+Lmm28u9ttvv2rsrrNt27bi+uuvL+64446pmB8I11U7/fSGdeXz37dulgQAmCZOVktfLuTfeeed4rLLLqvGzI/XX3+9+NOf/lRce+211ZidUgKZ4Ozyyy8vnnnmmaHmJfvmueeeW6xYsaIas+sk2Pjb3/5WfPzxx8VXX31VXgPEm2++Waxbt25e5zHb7/HHHy+OOuqoYtmyZcVhhx1W7LPPPuV6jPPOO2+qkgB10qKXBLZ/+MMfuu4nMUzg2y2QbY7rfN1vP7rrrruKU045pTjmmGOqMZMxagDfzbjTeOCBB8p9pd5Pm95///1i+fLl1dBO3RIkOaaTcNp3332L3XffvXwk6O6XaBlG/g+++eabiRxPq1evLjZs2FANwa6X/xzXVds1kwCaAwDAAkoC4LjjjquG5k8CluOPP74aminBxQknnFBs3bp13pMR40rwmmVI0J1kfy7kEvDk8Zvf/KYsgU+p6AsvvFCWOiewTPDRLWDJdzOdSUhJ8n333Veut1xU5vdefPHF8r2Mm3QCIOuhlyxXgq5+j6uuuqr6dHcJ/Pbff/9qaGH0CypTo+C73/1uNTR9xllX2S9OO+20MnmQR6aRWgl5nQC+c1we3WpIJDGS/S/rL++/9dZbQ9dsqI+n1P7pPJ6eeuqpGcdTAqZ+xxOw+KkJADBFZKyXviuvvLK4/fbbZwWLk64hkIv76667bla13HFLMxNQ/uM//mNxxhlnVGPmV4KWBLAJchLwHHjggTMCkpz7//KXvwwVeOe4mq9aDNluqXY+7PrMehzVP/3TP41VMp7lTrKn3zZLVf6sl17Tz/7y0EMPFZdcckmZMIjO6eV3uqnXSd6vX2e/THXxbrLN89nm+6n1cf/995fV3vNouuiii4b+r8z+kscwpeZ1TZlOmb+UlPdKBIxyTKV2QPbrrMu87tUsp59Rak1kPd5yyy1lDZb8VmoTjHM8ZX9IrYGPPvqoHK6bwtRSe6AXNQTYFfKf4rpqO80BAKaUk9Xikaq5Dz74YBmYJCg4//zzZ13E19XW64vmlLQlaPzyyy/L9/O9q6++esfFeIKBPffcs7jgggvK4UjS4Oyzz54ReOXiP9+tP9f5O7kwT+leba+99iov7uv5S+CXYGbYhEOmn9L3BAeTSlLMRdZTDDsvOa4GJQGyPZ999tnimmuuGbo0P9syzQBy/THsdxJIzuf0a1meJ554omfAXcu6SbOQOlmUa6pHH320fF3L/pMq66lx0S1hkGl0XoM1xzVf90sCJMB8+eWXZ2zXrK9PPvmkbHIxl3bm2WcyrQsvvHDs6WSd5vjq9v/cuQ7qRMKZZ57ZM0jPcfzKK6+UfSf0ao7RS5YlSbLOZEX+L0btI6DX8ZT/iYMOOmjG/1r92TRviDSHaVqzZo1gn6mSY9N11XaaAwDAHCQY+NWvflUG8LngzXPaiSdoa/rXf/3X4p577ik2b95cjSmKH/7wh8XDDz9cfu/SSy8tS+VraU+eoCDBUC3TTgCeQDzyXqoB/+QnPymHI8F/5+/86Ec/2vE7uQjK/NWSPEhTgCzHMPLZXER1lsTuCpnnBECjJCOSWBkkgVqqY6cjt2EkyKtrAIwSoA/72Uw/AVdqc4yaAMj6yf45qClApE16M2DMhXL2mfqRNuFJAGQ5s98MU+rcS5bp0EMPrYZmS5X0OrisZdmTeJhLAiCyD6d5TJ7HVZd+DyOl/Eko5ZjM/0K2SY7dVMdP8J9tm/nJOs5zhjM+7+dz+Xw/+Q/If0mnHKOjrKtux1P+a/KfkSYMSUI1/4/yuTyyn+SRbdN8AIuDmgBLSP6we1XD6lZlrl+VxM6OYLqVDNRStaxz3Y8yLzm5JHPcS06QTdO0nKNMezEvJwsn213GevqltK2z5D/H+G233da3unG3Kvo5dpvHfwKGzurlCQ4ipYXdfrtTPn/OOefMaFfc+TuZ31TzHlRSHPX0EqCkRkJzusNIUJHg67XXXiurDtfJhJSAjloyO05JZ/7zElz2W2e1LOv3vve9vsdggtn169eXSZw6yEvtjpSY5zfOOuusOQWt9fRvuOGGkdd1ZD9buXLlUP8j/UrmI/vJMB0DdpOkSvbluvO7BJvN6vSdvfVnO6VkedLBZNZnasZkX0tCbdRS91oC9ZNPPrnr/A2zHpPkSEIq66Dbtsny1+8P2l+zzjs7D8z6vfHGG8s+K4bV63hKciA1YwZ1Hlrvqzmmc/2Q65bO6xnYlVxX7aQ5wBKVi5DmrWOaup1Us956ycVD84RQn7y66XaiGmVecnG4adOmami2zoN2mpZzlGkv5uVk4ThZTb8cy1dccUXXC91clN90001dg4RcLN97772zAoXO4DxyYd68kM9vJsioexHvd77LZ9P2tzMQ6PY7mWam1a+kuRlY5L+js7p2L1ne9957r+xoLEFNAv6sl5QE5/cy3T//+c/F7373u659JHSTZbvzzjuHSlw01f+PwxxX9brOtuo2T1muev3nvzKdPNal4/luOgl87rnnen6/qVvCoQ6qxk0AJFBNIDZMIJjfStJq0P6UNvn9PpP/rX7v17K8/ZI+mc589N3QrNae32g2fxhFv+Ol2/HVTY6h1Nrp1q9AAulm86CmbIcE49m2dRIt08gj54yjjz66rBHU704PnQZt/6y3HLf99sOsk/QXkXlOkvBf/uVfJAGYKq6rdpIEAJhSTlbTLxfxvdq99gtiurWvjVxEDxPU5lz36KOPzqrZ06lXwDtskNIp02smB4ctiU8iM6XA/dpER4LWZiDdT9b9OJ0aZl5SlbvZ10I/maduHbXl91Pb48gjj+wbzOb7CZz6dcgXSYTkswkq0xQktSXSz8Q4CYBMK30AZBpJtOS5W8eQTcOuz+zX/T7TfD/T/Pzzz2etuzq5kgRS53u1fsfPuLJeMt36GMu+ME4HnJn/fgmofsdX1km9TClh79WvQI61bkn+zHMSAKlhkn3v97//fflfktfpLyFJ/RQyZB4zLss2TFJt3OOpqXPfyHpIM6Rhfh8WQvZR11Xb6RMAABZQApG09c8FelNK4oa9WK5rBtU9tPeSkvfU/mnK76dTt1ElqMj0mkFbmiKkSvUg+U6Cg0HBfRIMf/3rX6uh/nJf9HEccMABs5pXpdQy66WbJAC6tf9OwJQAKyWt/YLrJDVS+2GQbPu61Da1LRLEJ8EyTgIgF7p5zjrPPCZgTNCdfWyQbOcEmpOQADbJn87fTRCbNux5b5DMS+ZpErJOsy5q2S+zLwyzXppSw6M5nU6pCt9Lmt3U+1r2qwT6w8r3su6yXTPvCfoz/3md/SfrO8FNkhPZJ1MzIPtSnQycb6mVUK/LHFOReQSmmyQAAIwgvZT3krbP3SSASJDQGfCnR/9u1YI7pcQugVH6A0kA3it4zWfyO50Bai7Kh/mdTqkGnurJTQk+EuBOKmhMkuH73/9+NdRfguOs41EDxHwv81x/L+svzRB6yTJ2qzVQB2KRICulnmkCUgc/tVE6kIsE7XUQuccee5TPw0rJcjoATOInCYV6H8t81qW0g7ZVSpFzy7jIukm1/SxbHqn5kaAz++Aw6s81706R30/NhEE1Mep9NH1H1OshyzBqwF7LvCRIrbdZLft0mmv0Oo465feTxOucTq3f/pjv1k1gIrfhS1Igy9X5yLHQKbUqIt/P8qQpQbcOH/NePpN1nOY1SRp27pedkhzL+hl2PXSTdZnmK9lXUiu3voMEMN0kAQBgBHVpW2dgVQc/3S6Ac3HfrRQxncql1HmQBA0p7csj/QKkdLOb3AGgWxX0BIqpDjmKVFPvdUGfNtX5rXGDs6iDzazLUUq+EzCnWvaogUuzBkPW3+mnnz4rKTOsBH0JeFL9OyWw2b5Zx5F1kgRBZ22MQbJcCRaz3oeRecj6S/OB9EPRrapr1muCy0yzWyKg3rZJAtSvs26yr2TZ8kjThKgD117bPMucmgepmp79I9PIZ/PIvjLMnQpSKyTrMdul3jbpPDABe71+m3LM9doP8rsJmDMvnbKsSbr0Oo6aMv38fr0euumXzEsgns4Eawm6s88kOdP5yD7ZKdsw+0WC7GyDXk1FUkslTSki6y7706DmKPlcfjPbddxEQNZl+p/IvpImMsDiIAkAACNKr/AJrOrAvy6hy4V3pwRHzdL5ZrCYEtbOJgKd6tK8OshLUJOArv7tWsY1A+rm76SjukG/01QHor1KbrMsCUZSApjpDyuBa+Yz009QmPnNbdRGkdLYBC75fvpZ6BcINuV7+b0EU9EtaB5WSqkTzGV5si4yLwkoMz8J5rIfdNbGGEa+l+l2bttO+d10/phOBROAdUvU1OpEQK9q+KlZ0ZmwaNZGSOeO6RwugWv6d0hAXMu2T02B9GifAD6fyXrNsicATQ2U7CMpLe4WuHYmPNLOPTUImsFrtlsSaOmpvq6dUD8SFNcl5U2Zr7pzxV7bod63O+ehKdPJusvvd5v/WproZPk7ZTulBkS9fXIsj5ociuwXdcKp23xkuuOWwGd7ZZ6ax9O4kmRL3xbA9FsSHQMCLBW54NSBzeKQIDulsAnaElwmMdCt/Xu2abM38pTepmpxbieXi/teVYwjwW0uzjvvOJDEQkpvExTUEsw0b182yu/UErSkCUCWJ98ZpA62Bt2yMDLt3FUhCZETTjihTEqMEyjXMr3cK/3VV18tkymDOkyctGz/BP655WFknWXZEjDOZbkWWud+U+8DWaeRBEDn7Sab8vnO5c1+m87rsv91llzneEiiJDo7xaz393632RwkAXGaevQqMe+U5c8xnGRUs2ZIPZ1evfU3ZZk6b9cXOQaPP/748tjIsZLl6vydpgTh+Q8ZZT9OUq3uM6DXdIeR7ZhmS9mfRz2est2yHusaCDBNXFfttOTuDgAAzE0u5HOxlCB2mIRBLcFDqucP6omedsh+lI7pUlvjtNNOmxWYZh+LfG7UfW2QBO5JCvULtLvJ9xKk1wFsgvH0IZFS7W7TSWl57hCSxE8k+dMZ/Gb5kiTK+Ly+++67uyYKmrJuRrk7QuYjzQBGXd5JyvGfWim9kqCwq0kC7CQJAAAAwJImCbCTWwQCAABAC0kCAAAAsOSkvwy1AGaTBAAAAICWkAQAAACAlpAEAAAAgJaQBAAAAICWkAQAAACAllgySYCnn366vA8kAAAA0J2aAAAAANASkgAAAAAsOWqLdycJAAAAAC0hCQAAAAAtIQkAAAAALSEJAAAAAC0hCQAAAAAtIQkAAAAALSEJAAAAAC0hCQAAAAAtIQkAAAAALSEJAAAAAC0hCQAAAAAtIQkAAAAALSEJAAAAAC0hCQAAAAAtIQkAAAAALSEJAAAAAC0hCQAAAAAtIQkAAAAALSEJAAAAAC0hCQAAAAAtIQkAAAAALbFkkgCrVq0q1q5dWw0BAAAAndQEAAAAgJaQBAAAAGDJUVu8O0kAAAAAaAlJAAAAAGgJSQAAAABoCUkAAAAAaAlJAAAAAGgJSQAAAABoCUkAAAAAaAlJAAAAAGgJSQAAAABoCUkAAAAAaAlJAAAAAGgJSQAAAABoiSWTBHj66aeLW2+9tRoCAAAAOqkJAAAAAC0hCQAAAAAtIQkAAADAkqPJeHeSAAAAANASkgAAAADQEpIAAAAA0BKSAAAAANASkgAAAADQEpIAAAAA0BKSAAAAANASkgAAAADQEpIAAAAA0BKSAAAAANASkgAAAADQEpIAAAAA0BKSAAAAANASkgAAAADQEpIAAAAA0BKSAAAAANASkgAAAADQEpIAAAAA0BKSAAAAANASkgAAAADQEksmCbBq1api7dq11RAAAADQSU0AAAAAaAlJAAAAAGgJSQAAAACWHE3Gu5MEAAAAgJaQBAAAAICWkAQAAACAlpAEAAAAgJaQBAAAAICWkAQAAACAlpAEAAAAgJaQBAAAAICWkAQAAACAlpAEAAAAgJaQBAAAAICWkAQAAACAltjtO8uP/TYvfrt+TTmiDbZs2VKsWdN7eTds2FC92u7pp58uHn300WpopqOOOqpYu3ZtNbTd6tWrq1ezrVu3rlixYkU1NPq0b7311uLNN9+shma66KKLilWrVlVDoy/nKNMOyzn35Rxl2pZzu7ks5zQd+21Zzmk69tuynNN07LdlOafl2I82LOc0HfttWc5pOvbbspzTdOxP03Iyvp/esK58/vvWze1MAmzbtq3YtGlTNTRb586Wnfndd9+thmZatmxZcdJJJ1VD2+XA6mXlypXFfvvtVw2NPu2NGzcWn332WTU002GHHTbjAB91OUeZdljOuS/nKNO2nNvNZTmn6dhvy3JO07HfluWcpmO/Lcs5Lcd+tGE5p+nYb8tyTtOx35blnKZjf5qWk/G1PgkAAAAAbdFMAugTAAAAAFpCEgAAAABaQhIAAAAAWkISAAAAAFpCEgAAAABaQhIAAAAAWkISAAAAAFpCEgAAAABaQhIAAAAAWkISAAAAAFpCEgAAAABaQhIAAAAAWkISAAAAAFpCEgAAAABaQhIAAAAAWkISAAAAAFpCEgAAAABaQhIAAAAAWkISAAAAAFpCEgAAAABaQhIAAAAAWkISAAAAAFpCEgAAAABaQhIAAAAAWkISAAAAAFpCEgAAAABaQhIAAAAAWkISAAAAAFpCEgAAAABaQhIAAAAAWkISAAAAAFpCEgAAAABaQhIAAAAAWkISAAAAAFpCEgAAAABaQhIAAAAAWkISAAAAAFpCEgAAAABaQhIAAAAAWkISAAAAAFpCEgAAAABaQhIAAAAAWkISAAAAAFpCEgAAAABaQhIAAAAAWkISAAAAAFpCEgAAAABaQhIAAAAAWkISAAAAAFpCEgAAAABaQhIAAAAAWkISAAAAAFpCEgAAAABaQhIAAAAAWkISAAAAAFpCEgAAAABaQhIAAAAAWkISAAAAAFpCEgAAAABaQhIAAAAAWkISAAAAAFpCEgAAAABaQhIAAAAAWkISAAAAAFpCEgAAAABaQhJgAj788MPi1ltvLVavXl0+Zxj6+eKLL8p9Zdu2bdWYXWPLli3FAw88UA0BAABLnSTABDzyyCPFqaeeWmzYsKF8Xr9+ffUOdPfEE08UhxxySLHffvtVY3aNFStWFJ9++mnx9NNPV2MYRxKA1iEAAIuBJMAEvPnmm8VJJ51Uvs5zgqrF6PXXXy/uuuuuspR6HPnexRdfXAZE9Pb8888XW7duLS644IJqzK51+eWXlwFsagUsVql9k/nv9liomjnLli2rXgEAwPSSBJiAo446qti4cWP5Os8p4V2MUjr9yiuvlAHqOPbee+/ihz/8YTW0uCWhkWryky7hTUD6L//yL8Ull1xSjdn1UhvhwgsvLO65556xE0C7WmrjrFmzpuvjF7/4RfWp+bXvvvtWrwAAYHq1Pgkwl6An7bnzSOn3Sy+9VAaMeb7qqquqT3SXoPL6668vSymnxWOPPVZ88MEHZcB0zDHHVGNHd+KJJ5bP07Rso8j+kJL6bMNxkyH9JFj90Y9+VFbDnyZnnHFG+fziiy+Wz5OW4yTrNf0g1LVF6keOhSRc5rLPrF27tmyO0/lYt25d9QkAACBanwRI0NMMSEZ5XHHFFWUAE3UQkueDDz64HNdPAu5pkdoLTz31VJkAqJs1jCvLvtdeexUff/xxNaa3lIonIZKgsK5JsStlfhL8p6Q+JeOTLq1PkJumI3XAPW3OP//84tFHH51obYBMKwmmHCtZv2eeeWZx0003le8lQM8xk3We/SY1ESbdseYw+yEAALTJbt9Zfuy3efHb9WvKEW2TEsq//e1v1dBonnzyyeL9998vA5dhAv9aAt8EWw8//HBZhX5XSvD9y1/+siydvuyyy6qxc5NS3QR/1157bTVmuwR37733XvH2228Xb731VpksSNOJNEE455xzdnkb+ewL999/f9lGPlXkE7SnOvlFF11UrFq1qvrU+LJeUrvgjjvuqMZMl2yzBORJgEwiUZHtnU4ys40zzboTxHq9/vrXv57VMWLWUfbJUY+pXupjLQmHcWtfDPMfkeX5x3/8x+LAAw+sxnS3zz777PLOIAEAaJ+f3rC9huzft26WBBhXAqaf/exnYwXPdWCSUtBdaT4SAJHpJphLsJtgvxn0p/+Eww8/vDj00EPLYCifS+n4fffdV317ekw6CZDaIwkUp7UmQKRjyHRsOddERRIAqRWTmiWd+1aaBaS2Ra/9v04E3HvvvXNOkmV5su9lHsat5VIfr5MwqX0JAABG0UwC6BhwTH/+85/L52kO6PqpEwBpwz+JBECCvgR3CboSxH355ZdlU4kkAI444oiyZDeBfh2MJQGQ7/zxj38sLr300moqS1fd3n1QSfEwst6ynutmKVdeeWUZqE6iGn+2VZqqzHVaCeCPPPLIrvtW5j/JoF7ynSSM0lHlXGVZli9fXnz00UfVmNElaE/CotcjNXqibt7Q69FvmYdRb+9sawAAGJckwBgSIP3ud78rL+onUWV5oSWISAIggdb3vve9auxocjvBtPVOcJ/AJKW+Ce6OP/74MgDMusmdAtIkIImSbuspn0sSYi4dES4W7777bvk81w4Bk7ype7v/p3/6pzLwTFv+bNNsi7kG73WS4pNPPimfx5F5TBX6XsmlNIkYdAeNs88+u5zOXGQeUqsh/RCktsl8qdfVAQccUD4DAMA0kwQYQzoTTHBx7rnnVmMWzlwCowSIKaVP1eYEkikhnYvnnnuuDOaSUEiv93Upf6pwp0S5X+CV+egXKC41X3/9dZl0mYusr6y3NN9IciXJkyQVss5Tfb9+fy7qQHYuHeo988wzZQKoW1X+zGNK5wclQ5KMSG2SugbFOOpkQ9ZTfjO/PR+++eab8nm++/dIU4I8DjvssGoMAACMThJgRAkkUuq6K27zlpL3BNzjBDMppU9JcZIIKT0et310LYFVAv905tetlD+BSq/AK/OQZgA///nPhwqc6nU+qcd8BYP91NXS5yLBdQLj8847rxqzU5pXpNp6OlnMth5XvT2++uqr8nlUWbdZ1vpWkZ3SPj8G1f6YRKl6btdZV8HP/GzatKl8PWlpajCoZsMkZPvmsdD/OwAALC2SACNK7/HRLRCbL3UJfm7jl5LAUXsXT1v9VNdPgJcq+AsRROQ3UvLdea/9BImPP/542UHesM0AUtKa2guTeox7N4hdLcmTBLO9EicrV64sn994443yeVeo122vZjIvvPBCzwRB0+eff169Gk/2s9REqX8rzVTy2/Mh/V7Mtb0/AAAsFEmAEaQUOYHFsCXYk9AswU8V/lF6Fq+/m57Y8706EbBQ0jHcO++8Uw1tlwRGOggcpUPFBJSpvZBaEN06XBv1sRhLUhPUphZAvz4c6uRQgtJpVNcSOOWUU6oxvdVV7MeVWhPNPjtS8yXrby7NabpJgi7/CUrnAQBYLCQBhpTgIaXIuZ/9sCXYc1WX4EeC+WGr8CcwSdOBJA3yOsHzKMmDSUm/AJMKuhJk9SpdXgxSXXwundMNW3thrtXSs7/EnnvuWT5PUgLz/ffff6jjJx1PxjjBdZINaW7S2WdHjoHUQqmXcRLqW18Os0zvv/9+cdBBB1VDAACwa0gCDCEl6gmkU7KYNvDzLZ2h5fZ6KcFPB2tJBIwSAKcKftqGp8p9OozbVcHz97///bL0dS5t1JeKPfbYo3o13eqe7se9leE+++xTPndu8zowz50MBkmQnk4n0+/GONJkJ8dqZwLhtNNOK59///vfl8+TkKTCsAm2HAu77757NQQAALuGJMAACWYShKeE9ZprrqnGzo8ESmn7v2bNmrJjtlSBT9Jh1Cr8KZUctcr9fEjyIaWk7733XjWmveoe3cft7X7Y4DHV7eeivivAuB3zpUlCAvD0X1FLUH/nnXeWx9AwtVmeeOKJMmA+66yzqjHDS+2ZlLhffvnl1Zidchxdeuml5bzVNQ3mIr+V+ayTCwAAsBhIAvSRquxJACSwmc/29HXwf8UVV5S/mc7/EsQvhXbG6Rfg1VdfrYbaq96W4956r06o/OUvf6nGzJb9KNIMY1zpTyDB+lz29VTDT02Uu+66q+xHI01ZMm9XXXVV9YnechykxkCasozaAWYSLKk9k9tO9vpuEmRp0vOrX/1qTjVU8t381rD9g9TJn0nc9QAAAOZCEqCHBC9pApAgdr4SACmNTKDUDP7Te/+uaL8/XxKQpi38JNthL1bpqX4uPdSnFD3Bda91Wd8C7+ijjy6fR5Xppo376aefXo0ZTxIeCeJTKyH9aKQfgEHNUhIkJ1lQJwBGvYVlgvLbbrutDPAHfTe1a+rE3jiJgLp2UJorDNs/SN3R4Vz+R+pbXI5bmwQAAEISoEMu8NMeP8FLgvJrr7124gmAzz77rHz+53/+5zJQagb/85Fs6GUhAvP0CxCdtwpsox//+Mfl9h4n8Iy6enyqy3fKNBMgJtEwbh8Q9T38f/CDH5TPc5FAPLVZcjeGHEPdSuZTOyDJrwT/aQITSbyNmgCoa+zke8P22ZHPj5MISOKu/q3UOBjWRx99NOfbCOY/KY933323GgMAAKP7f/5hn//3/5cX557+/ylHtFUCknTylWD83/ybf1PcdNNNxcknn1y9O1npJC63zksQkVoAKTnNby60VGc+9NBDi//wH/5DNWby/t2/+3fF//gf/6P4P//n/xTHHntsNXZ6JZBOkJVHSlzTvvwf/uEfyt756/HjNtNYtmxZ8b/+1/8q97Vx1kWaA3z3u98tA8F04Pdv/+2/Lf73//7f5TTT5j5BbUrRx92X/ut//a/Ff/yP/7Gs/bIQcreAP/zhD8Xy5cuL//Jf/kvxn/7Tfyr3l2ElifXf//t/Lx566KHiP//n/1xceOGF1TuDZR0l2fE//+f/LJ599tly2/z7f//vq3dnq38rnQ6O+luReTz88MPndKz9t//238rnbJ+l0FQIAICF8+QLL5fPa/+/lxW7fWf5sd9m4Lfrt5fEtVVKE9MeOaXx6ehrIUvkd5XVq1eXpZMp2ZxPWa+55dxC3FlhrrJOBknp9rhS6pxAPZ0+jhvIJTmR4DlNAyLV7VOFfy77bTq5+93vflfcfvvti2Lfzzq45557yo750i5/2Gr53dT9EKQWRRJzzeVP8P/iiy+WyaEkYa6++uq+2y3b94033ihvBVh35pjEURI3qeWwq+7UAQBAu/30hnXl89+3bpYEgIWWgDt9AyT5Mg0Bd2ompAlMar8shhLmBOZpEpHnzqB9XKnmn2l2bpME9evXrx86yZJ1mdoC6QejluRBag7s6rt1AADQXpIAsItNU+2IJAAS5ApSAQBgaWomAXQMCLvAeeedV3YSmNLsXSnV6tMvhAQAAAC0g5oAAAAAsISpCQAAAAAtJAkAAAAALSEJAAAAAC0hCQAAAAAtIQkAAAAALSEJAAAAAC0hCQAAAAAtIQkAAAAALSEJAAAAAC0hCQAAAAAtIQkAAAAALSEJAAAAAC0hCQAAAAAtIQkAAAAALSEJAAAAAC0hCQAAAAAtIQkAAAAALSEJAAAAAC0hCQAAAAAtIQkAAAAALSEJAAAAAC0hCQAAAAAtIQkAAAAALSEJAAAAAC0hCQAAAAAtIQkAAAAALSEJAAAAAC0hCQAAAAAtIQkAAAAALSEJAAAAAC0hCQAAAAAtIQkAAAAALSEJAAAAAC0hCQAAAAAtIQkAAAAALSEJAAAAAC0hCQAAAAAtIQkAAAAALSEJAAAAAC0hCQAAAAAtIQkAAAAALSEJAAAAAC2x23eWH/tt9RoAAABYov6+dbOaAAAAANAWu337f1WvAQAAgCWrKP7/wEe3AfuxWDQAAAAASUVORK5CYII=;" vertex="1" parent="1">
          <mxGeometry x="414" y="540" width="445" height="300" as="geometry" />
        </mxCell>
      </root>
    </mxGraphModel>
  </diagram>
</mxfile>
